<svg width="336" height="336" viewBox="0 0 336 336" fill="none" xmlns="http://www.w3.org/2000/svg">
<path d="M206.073 312.498L175.873 294.768V34.1579C175.873 32.7064 174.697 31.5332 173.248 31.5332C171.799 31.5332 170.623 32.7064 170.623 34.1579V296.27C170.623 297.199 171.117 298.06 171.92 298.532L202.12 316.262V330.751H133.877V316.262L164.077 298.532C164.881 298.062 165.374 297.199 165.374 296.27V34.1579C165.374 32.7064 164.198 31.5332 162.749 31.5332C161.3 31.5332 160.125 32.7064 160.125 34.1579V294.768L129.925 312.498C129.121 312.968 128.628 313.832 128.628 314.761V333.375C128.628 334.827 129.804 336 131.253 336H204.745C206.194 336 207.369 334.827 207.369 333.375V314.761C207.369 313.832 206.876 312.971 206.073 312.498Z" fill="black"/>
<path d="M183.747 312.378H131.253C129.804 312.378 128.628 313.551 128.628 315.002C128.628 316.454 129.804 317.627 131.253 317.627H183.747C185.196 317.627 186.372 316.454 186.372 315.002C186.372 313.551 185.196 312.378 183.747 312.378Z" fill="black"/>
<path d="M173.248 294.005H162.749C161.3 294.005 160.125 295.178 160.125 296.629C160.125 298.081 161.3 299.254 162.749 299.254H173.248C174.697 299.254 175.873 298.081 175.873 296.629C175.873 295.178 174.697 294.005 173.248 294.005Z" fill="black"/>
<path d="M167.978 0C157.846 0 149.605 8.2416 149.605 18.3677C149.605 28.4965 157.846 36.7381 167.978 36.7381C178.106 36.7381 186.345 28.4991 186.345 18.3677C186.345 8.2416 178.106 0 167.978 0ZM167.978 31.4887C160.741 31.4887 154.854 25.6041 154.854 18.3677C154.854 11.134 160.741 5.24943 167.978 5.24943C175.211 5.24943 181.096 11.1367 181.096 18.3677C181.096 25.6041 175.211 31.4887 167.978 31.4887Z" fill="black"/>
<path d="M110.09 194.266H16.2981C14.8493 194.266 13.6734 195.439 13.6734 196.89C13.6734 224.198 35.889 246.413 63.1939 246.413C90.5014 246.413 112.717 224.198 112.714 196.89C112.714 195.439 111.538 194.266 110.09 194.266ZM63.1939 241.164C39.2513 241.164 20.3113 223.074 18.9964 199.515H107.394C106.079 223.074 87.1365 241.164 63.1939 241.164Z" fill="black"/>
<path d="M63.6585 23.8428C62.2595 23.4701 60.8159 24.2864 60.4327 25.6827L13.7679 196.436C13.3847 197.838 14.2089 199.279 15.6079 199.662C15.8388 199.722 16.0724 199.754 16.3008 199.754C17.453 199.754 18.5108 198.987 18.831 197.819L65.4984 27.0686C65.8816 25.667 65.0574 24.226 63.6585 23.8428Z" fill="black"/>
<path d="M112.622 196.436L65.963 25.6829C65.5798 24.2866 64.1388 23.4676 62.7372 23.843C61.3382 24.2262 60.5141 25.6698 60.8973 27.0687L107.559 197.822C107.877 198.987 108.935 199.754 110.09 199.754C110.318 199.754 110.552 199.722 110.783 199.662C112.182 199.279 113.006 197.835 112.622 196.436Z" fill="black"/>
<path d="M152.25 15.7849H70.8843C69.4355 15.7849 68.2596 16.9582 68.2596 18.4096C68.2596 19.8611 69.4355 21.0343 70.8843 21.0343H152.25C153.699 21.0343 154.875 19.8611 154.875 18.4096C154.875 16.9582 153.699 15.7849 152.25 15.7849Z" fill="black"/>
<path d="M262.488 15.7849H183.747C182.298 15.7849 181.122 16.9582 181.122 18.4096C181.122 19.8611 182.298 21.0343 183.747 21.0343H262.488C263.937 21.0343 265.113 19.8611 265.113 18.4096C265.113 16.9582 263.937 15.7849 262.488 15.7849Z" fill="black"/>
<path d="M62.9629 8.14185C57.2096 8.14185 52.5297 12.8217 52.5297 18.5725C52.5297 24.3232 57.2122 29.0004 62.9629 29.0004C68.7137 29.0004 73.3909 24.3232 73.3909 18.5725C73.3909 12.8191 68.7111 8.14185 62.9629 8.14185ZM62.9629 23.7536C60.1046 23.7536 57.7791 21.4308 57.7791 18.5751C57.7791 15.7194 60.1046 13.3939 62.9629 13.3939C65.8186 13.3939 68.1415 15.7194 68.1415 18.5751C68.1415 21.4308 65.8186 23.7536 62.9629 23.7536Z" fill="black"/>
<path d="M319.7 194.266H225.908C224.459 194.266 223.283 195.439 223.283 196.89C223.283 224.198 245.499 246.413 272.803 246.413C300.108 246.413 322.324 224.198 322.324 196.89C322.325 195.439 321.149 194.266 319.7 194.266ZM272.801 241.164C248.858 241.164 229.918 223.074 228.603 199.515H317.001C315.686 223.074 296.743 241.164 272.801 241.164Z" fill="black"/>
<path d="M273.26 23.8428C271.856 23.4649 270.418 24.2838 270.034 25.6828L223.375 196.436C222.992 197.838 223.816 199.279 225.215 199.662C225.446 199.722 225.679 199.754 225.908 199.754C227.06 199.754 228.12 198.987 228.438 197.819L275.1 27.0686C275.483 25.667 274.659 24.226 273.26 23.8428Z" fill="black"/>
<path d="M322.232 196.436L275.567 25.6829C275.184 24.2866 273.743 23.4676 272.342 23.843C270.943 24.2262 270.118 25.6698 270.502 27.0687L317.166 197.822C317.484 198.987 318.542 199.754 319.697 199.754C319.925 199.754 320.159 199.722 320.392 199.662C321.791 199.279 322.615 197.835 322.232 196.436Z" fill="black"/>
<path d="M273.034 8.14185C267.284 8.14185 262.606 12.8217 262.606 18.5725C262.606 24.3232 267.286 29.0004 273.034 29.0004C278.783 29.0004 283.46 24.3232 283.462 18.5725C283.462 12.8191 278.785 8.14185 273.034 8.14185ZM273.034 23.7536C270.179 23.7536 267.856 21.4308 267.856 18.5751C267.856 15.7194 270.179 13.3939 273.034 13.3939C275.887 13.3939 278.213 15.7194 278.213 18.5751C278.213 21.4308 275.89 23.7536 273.034 23.7536Z" fill="black"/>
<path d="M94.5067 204.764H18.39C16.9412 204.764 15.7653 205.938 15.7653 207.389C15.7653 208.841 16.9412 210.014 18.39 210.014H94.5067C95.9556 210.014 97.1314 208.841 97.1314 207.389C97.1314 205.938 95.9556 204.764 94.5067 204.764Z" fill="black"/>
<path d="M301.859 204.764H228.367C226.918 204.764 225.742 205.938 225.742 207.389C225.742 208.841 226.918 210.014 228.367 210.014H301.859C303.308 210.014 304.484 208.841 304.484 207.389C304.484 205.938 303.308 204.764 301.859 204.764Z" fill="black"/>
</svg>
