<?xml version="1.0" standalone="no"?>
<!DOCTYPE svg PUBLIC "-//W3C//DTD SVG 20010904//EN"
 "http://www.w3.org/TR/2001/REC-SVG-20010904/DTD/svg10.dtd">
<svg version="1.0" xmlns="http://www.w3.org/2000/svg"
 width="1280.000000pt" height="800.000000pt" viewBox="0 0 1280.000000 800.000000"
 preserveAspectRatio="xMidYMid meet">
<g transform="translate(0.000000,800.000000) scale(0.100000,-0.100000)"
fill="#000000" stroke="none">
<path d="M4548 7950 c-50 -57 -124 -179 -302 -500 -23 -41 -59 -100 -79 -132
-20 -31 -47 -81 -61 -111 -43 -98 -299 -497 -478 -745 -90 -125 -257 -379
-316 -482 -36 -63 -68 -104 -168 -222 -74 -86 -154 -200 -495 -708 -108 -162
-223 -324 -254 -360 -82 -94 -194 -245 -293 -395 -47 -71 -111 -159 -142 -195
-92 -106 -126 -152 -163 -216 -20 -33 -71 -99 -114 -148 -155 -174 -236 -273
-303 -372 -92 -135 -150 -201 -240 -273 -41 -33 -113 -98 -160 -144 -143 -142
-167 -175 -141 -192 15 -9 123 87 203 182 42 48 132 141 202 206 73 69 156
159 198 215 39 54 95 122 123 152 96 102 170 197 225 290 30 51 89 131 130
179 42 47 106 124 142 171 36 47 82 100 102 119 19 19 38 46 41 60 3 14 26 53
51 86 25 33 63 83 83 110 41 54 61 73 94 90 12 6 24 24 28 44 4 18 16 45 28
60 41 51 220 318 296 441 42 69 116 179 164 245 48 66 115 161 148 210 33 50
88 126 122 168 34 43 86 118 115 167 30 48 94 144 144 212 49 67 97 137 106
155 8 17 33 52 55 76 21 25 56 74 76 109 21 35 68 101 105 148 80 103 116 156
159 235 18 33 57 92 87 131 29 39 66 102 82 140 15 38 50 102 77 143 60 89 60
89 123 221 28 58 71 131 96 164 25 32 69 99 98 148 28 50 58 92 65 95 8 3 26
-6 41 -20 42 -40 68 -46 300 -68 120 -11 246 -24 282 -29 207 -30 1218 -38
1380 -10 150 25 397 72 495 95 130 29 293 34 394 10 86 -21 224 -94 294 -156
86 -77 154 -186 252 -407 l28 -63 -54 -52 c-44 -43 -57 -64 -71 -112 -10 -33
-47 -109 -83 -170 -36 -60 -88 -157 -116 -214 -61 -128 -179 -334 -362 -636
-77 -126 -169 -290 -204 -364 -35 -74 -104 -197 -153 -275 -48 -78 -116 -190
-150 -251 -34 -60 -72 -124 -85 -140 -13 -17 -49 -78 -80 -135 -32 -58 -95
-160 -141 -227 -46 -67 -132 -211 -190 -320 -135 -250 -160 -292 -364 -603
-92 -140 -190 -295 -218 -345 -79 -140 -144 -241 -264 -412 -181 -256 -194
-277 -223 -354 -47 -125 -154 -327 -313 -592 -79 -131 -107 -164 -127 -147 -8
7 -15 18 -15 25 0 22 -98 103 -148 121 -63 24 -113 58 -240 167 -119 102 -183
150 -254 191 l-47 27 -398 -11 c-468 -14 -1859 -14 -2218 0 -258 10 -321 17
-440 51 -181 52 -245 85 -292 151 l-37 51 -23 -27 c-31 -36 -28 -74 7 -116 45
-52 41 -86 -29 -223 -33 -63 -63 -135 -66 -160 -6 -38 -15 -52 -65 -95 -32
-28 -71 -75 -88 -104 -16 -29 -63 -87 -104 -128 -59 -59 -79 -88 -97 -138 -32
-85 -64 -117 -137 -137 -80 -22 -124 -42 -157 -70 -27 -24 -27 -25 -11 -50 10
-15 17 -45 16 -70 0 -43 1 -44 51 -67 49 -22 64 -23 252 -23 122 0 257 7 345
17 197 23 652 33 1520 33 479 0 769 4 855 12 190 17 680 36 805 31 96 -4 113
-8 147 -30 22 -14 64 -38 93 -53 101 -51 415 -173 491 -189 41 -10 115 -30
165 -47 111 -36 239 -53 359 -47 79 4 102 10 190 48 214 92 366 116 560 86
186 -29 332 -65 530 -132 105 -35 226 -69 270 -75 58 -9 87 -18 105 -35 36
-33 143 -79 241 -104 46 -12 152 -41 234 -65 254 -74 535 -142 640 -155 79
-10 116 -20 180 -50 126 -60 391 -144 765 -241 107 -27 281 -79 385 -114 105
-35 221 -71 260 -80 38 -9 97 -28 130 -44 33 -15 85 -36 117 -46 55 -17 57
-17 115 5 96 36 152 71 206 131 46 50 56 68 83 160 18 57 37 127 43 154 6 28
36 101 67 163 30 62 71 157 90 210 20 53 57 149 84 212 27 63 58 147 71 185
29 92 97 250 199 460 98 204 144 313 161 380 7 28 118 266 247 530 129 264
280 581 337 705 57 124 168 356 247 515 79 160 186 382 237 495 51 113 111
241 132 285 22 45 39 86 39 92 0 5 8 21 19 34 10 13 21 42 25 64 4 22 33 85
63 139 66 118 192 377 240 496 18 46 42 94 53 105 36 39 70 131 80 219 13 112
49 210 120 326 33 52 73 133 91 179 l32 85 -28 53 c-45 87 -57 93 -200 93 -67
0 -137 5 -156 12 -59 20 -169 96 -169 117 0 10 14 48 31 84 38 83 49 166 25
203 -25 37 -61 49 -241 78 -177 28 -289 55 -375 90 -31 13 -97 33 -146 45
-195 49 -285 76 -420 126 -250 94 -503 167 -728 209 -49 9 -128 32 -176 50
-48 19 -131 46 -186 61 -120 33 -276 89 -445 161 -148 63 -175 69 -334 83
-216 19 -302 15 -398 -19 -257 -91 -392 -173 -627 -384 -47 -42 -92 -76 -101
-76 -23 0 -30 12 -74 120 -61 152 -115 249 -170 306 -51 52 -225 173 -281 195
-61 24 -165 49 -203 49 -45 0 -197 -25 -496 -80 -455 -85 -440 -84 -1020 -84
-364 0 -537 4 -575 12 -30 6 -139 19 -241 27 -216 18 -275 31 -383 85 -43 22
-82 40 -86 40 -5 0 -28 -23 -52 -50z m4606 -215 c32 -9 100 -20 150 -25 117
-13 114 -12 296 -87 219 -91 667 -239 776 -257 50 -8 138 -28 195 -45 57 -16
152 -41 211 -55 138 -33 348 -101 418 -136 35 -18 105 -38 188 -53 72 -14 178
-42 234 -62 164 -59 268 -83 405 -95 145 -13 189 -23 203 -50 39 -74 -43 -253
-225 -488 -166 -215 -249 -344 -410 -642 -145 -267 -332 -567 -470 -751 -86
-115 -118 -169 -240 -399 -48 -91 -145 -257 -215 -370 -70 -113 -166 -270
-212 -350 -104 -177 -277 -447 -408 -635 -53 -77 -131 -196 -172 -265 -163
-273 -449 -718 -610 -948 -55 -79 -131 -202 -169 -274 -84 -159 -133 -232
-181 -271 -33 -27 -46 -30 -137 -36 -88 -7 -104 -11 -141 -37 -90 -62 -71 -61
-235 -21 -83 20 -197 41 -255 47 -177 18 -253 31 -312 55 -31 13 -81 28 -110
34 -29 6 -156 47 -283 91 -126 43 -297 100 -380 126 -82 25 -211 73 -285 106
-85 38 -170 67 -230 80 -248 53 -290 67 -443 141 -84 41 -181 96 -217 121 -81
58 -137 76 -270 83 -145 8 -229 -7 -296 -51 -91 -61 -194 -165 -219 -222 -31
-69 -85 -98 -85 -45 0 27 82 189 153 304 98 155 123 204 158 302 52 149 91
216 204 355 76 92 132 174 151 218 7 19 42 73 77 120 76 105 111 161 167 269
24 44 63 107 87 140 24 32 56 81 70 108 14 28 46 79 72 115 63 88 99 146 164
270 31 58 68 116 81 129 14 13 35 52 46 87 12 34 37 84 57 110 20 26 49 74 66
108 16 33 41 75 56 92 15 17 69 105 120 195 52 90 134 226 183 302 49 76 94
150 101 165 6 15 40 68 76 117 62 87 151 254 151 283 0 27 91 189 136 242 25
29 68 99 96 154 28 56 70 128 93 161 23 33 55 84 70 114 15 30 57 104 95 165
37 61 88 155 114 209 25 54 65 126 89 160 25 34 63 98 85 142 33 66 62 103
164 206 127 129 189 181 319 266 74 48 294 153 374 179 55 18 189 17 259 -1z
m3111 -1229 c13 -9 19 -25 18 -48 -1 -34 -92 -258 -188 -463 -25 -55 -75 -165
-110 -245 -35 -80 -83 -188 -107 -240 -25 -52 -64 -147 -88 -210 -58 -157
-143 -323 -234 -459 -42 -63 -83 -135 -92 -160 -110 -300 -376 -779 -529 -951
-24 -27 -68 -85 -96 -127 -29 -43 -80 -116 -114 -163 -121 -164 -336 -559
-538 -985 -31 -66 -79 -158 -106 -205 -27 -47 -71 -123 -98 -169 -26 -46 -65
-103 -85 -126 -21 -24 -38 -53 -38 -64 0 -31 -39 -138 -108 -293 -33 -75 -73
-167 -88 -205 -62 -156 -139 -285 -185 -309 -17 -8 -32 -26 -36 -42 -3 -15
-24 -63 -45 -106 -47 -99 -37 -121 24 -51 24 26 55 71 69 99 15 28 47 82 73
119 25 38 46 74 46 81 0 7 22 57 49 112 27 54 80 171 116 259 39 93 143 302
249 500 101 187 272 516 380 731 108 215 220 426 249 470 118 177 241 349 314
441 84 105 214 295 281 408 47 80 151 304 221 475 63 154 254 460 287 460 20
0 18 -18 -16 -113 -30 -85 -134 -322 -150 -342 -21 -26 -114 -226 -170 -365
-94 -235 -169 -380 -286 -556 -117 -174 -137 -213 -195 -382 -66 -190 -139
-322 -263 -477 -92 -114 -149 -201 -241 -370 -49 -88 -112 -198 -140 -245 -71
-115 -190 -371 -260 -560 -84 -225 -106 -264 -167 -296 -60 -31 -62 -10 -11
141 39 115 207 458 272 554 48 70 93 158 146 286 23 56 60 129 83 163 23 33
63 101 88 149 25 48 62 110 83 138 51 67 74 107 106 185 15 36 59 117 98 180
107 175 157 263 157 278 0 22 -19 3 -41 -41 -12 -23 -57 -97 -101 -165 -43
-67 -108 -176 -143 -241 -35 -66 -82 -147 -105 -181 -23 -34 -61 -99 -84 -144
-23 -44 -62 -112 -86 -151 -24 -38 -71 -132 -105 -207 -35 -75 -71 -149 -83
-165 -11 -15 -50 -89 -87 -163 -37 -74 -83 -159 -101 -187 -37 -59 -60 -109
-129 -293 -26 -69 -65 -160 -86 -202 -22 -43 -39 -80 -39 -83 0 -3 8 -5 17 -5
9 0 52 36 94 81 114 118 127 93 54 -99 -24 -64 -74 -172 -110 -239 -77 -142
-102 -211 -111 -299 -8 -72 10 -91 21 -24 8 48 41 112 94 183 30 40 54 97 104
242 186 548 345 948 434 1095 48 78 117 198 222 385 34 61 89 144 122 185 83
103 220 309 268 402 22 43 57 130 77 195 53 170 73 208 284 523 53 78 90 154
158 326 68 169 77 190 230 514 61 130 125 278 142 330 18 52 81 192 140 311
137 272 186 387 265 619 75 219 126 340 148 354 12 8 22 5 40 -12 13 -12 31
-22 40 -22 50 0 34 -52 -105 -345 -55 -115 -123 -268 -153 -340 -29 -71 -113
-256 -187 -410 -75 -154 -148 -314 -163 -355 -16 -41 -46 -113 -68 -160 -21
-47 -74 -174 -117 -282 -44 -109 -113 -270 -155 -358 -42 -88 -96 -209 -120
-268 -146 -363 -185 -450 -247 -552 -67 -110 -88 -154 -219 -462 -190 -445
-329 -702 -428 -791 -40 -36 -42 -40 -31 -67 16 -39 4 -79 -92 -294 -102 -229
-114 -253 -145 -282 -17 -16 -27 -39 -33 -81 -4 -32 -27 -98 -50 -148 -132
-283 -136 -290 -201 -323 -27 -14 -36 -29 -59 -97 -42 -125 -99 -225 -129
-225 -4 0 -46 29 -92 65 -46 36 -90 65 -97 65 -7 0 -57 42 -110 93 -53 51
-112 104 -130 116 -31 21 -34 22 -51 7 -41 -37 -202 -5 -436 87 -77 30 -151
58 -165 62 -14 4 -51 18 -84 32 -38 16 -117 33 -229 49 -94 13 -189 29 -211
35 -130 34 -392 124 -451 155 -56 30 -88 39 -174 50 -58 8 -119 18 -135 24
-39 13 -46 13 -46 -5 0 -54 -204 -21 -269 44 -11 11 -18 27 -15 35 4 9 -8 18
-38 29 -24 8 -51 18 -62 22 -18 8 -18 7 -1 -18 9 -14 14 -31 10 -37 -18 -29
-153 8 -288 80 -40 21 -97 43 -127 49 -30 5 -95 17 -144 26 -49 9 -141 35
-203 57 -63 22 -146 48 -185 59 -39 11 -83 28 -97 38 -54 38 -98 54 -171 62
-42 5 -102 18 -135 29 -83 28 -145 26 -238 -10 -99 -38 -127 -39 -127 -5 0 19
14 36 59 68 32 24 74 49 92 56 19 7 58 22 87 33 l53 20 77 -30 c42 -17 113
-40 158 -51 149 -38 443 -145 560 -204 39 -20 120 -47 184 -62 63 -15 158 -39
210 -53 56 -15 141 -28 205 -32 150 -10 229 -45 205 -90 -8 -15 -3 -19 35 -29
24 -6 45 -11 47 -11 2 0 3 15 3 33 0 30 2 32 32 29 45 -3 203 -54 352 -114
213 -85 519 -151 777 -167 116 -8 124 -10 215 -54 117 -57 356 -120 650 -171
l36 -6 12 53 c8 36 32 85 73 146 l61 92 -21 20 c-12 11 -22 25 -22 32 0 23
128 276 179 353 28 42 51 82 51 88 0 19 74 167 118 237 22 35 48 86 57 112 9
27 40 87 68 135 29 48 58 99 64 113 6 15 34 57 61 95 45 62 163 266 229 399
28 56 25 54 -36 -27 -42 -56 -64 -73 -82 -62 -16 9 -10 29 40 135 49 105 110
189 137 189 19 0 18 -20 -5 -77 -37 -98 -30 -105 14 -14 44 92 45 94 25 108
-20 14 -20 14 2 56 43 85 292 483 324 520 19 20 34 44 34 52 0 8 29 47 65 87
118 130 275 368 315 476 12 31 44 93 71 138 27 45 49 85 49 89 0 4 23 38 50
77 63 86 100 154 184 338 36 80 85 170 108 200 23 30 63 105 88 166 26 61 68
145 93 185 26 41 53 93 60 115 22 60 90 190 147 279 60 95 280 530 305 604 16
48 16 54 1 70 -19 21 -21 62 -4 79 16 16 60 15 83 -2z m332 -88 c83 -20 94
-67 44 -192 -17 -43 -58 -124 -91 -180 -50 -86 -65 -124 -94 -237 -39 -148
-95 -300 -131 -353 -39 -57 -44 -71 -59 -148 -23 -120 -101 -307 -188 -455
-27 -46 -58 -108 -70 -139 -12 -31 -35 -70 -52 -86 -40 -41 -125 -217 -142
-295 -7 -34 -40 -116 -73 -180 -32 -65 -82 -170 -111 -233 -28 -63 -76 -159
-107 -213 -31 -54 -81 -164 -113 -245 -31 -81 -93 -228 -137 -327 -44 -99
-104 -234 -133 -300 -29 -66 -76 -167 -105 -225 -29 -58 -60 -127 -70 -155
-10 -27 -26 -61 -36 -75 -28 -42 -74 -139 -123 -260 -26 -63 -63 -143 -82
-178 -19 -34 -39 -87 -44 -117 -5 -30 -23 -83 -39 -117 -17 -34 -31 -69 -31
-78 0 -20 -192 -398 -240 -475 -21 -33 -42 -73 -46 -90 -3 -16 -17 -41 -29
-55 -34 -37 -68 -95 -167 -284 -116 -220 -159 -294 -202 -345 -34 -40 -63
-107 -52 -118 3 -3 26 0 51 7 36 10 48 10 60 0 19 -16 19 -63 0 -100 -17 -34
-50 -46 -159 -60 -87 -11 -97 -8 -183 52 -22 16 -85 40 -152 58 -63 17 -207
63 -320 101 -113 39 -232 75 -263 80 -160 24 -475 108 -619 164 -49 19 -95 35
-104 35 -8 0 -29 9 -47 20 -18 11 -45 20 -60 20 -14 0 -88 16 -165 36 -76 19
-314 80 -529 134 -215 54 -439 117 -499 139 -60 23 -138 46 -172 51 -34 6 -99
24 -144 40 -45 17 -122 42 -173 56 -50 14 -143 47 -206 74 -63 26 -133 53
-155 58 -22 6 -80 21 -130 33 -49 12 -123 37 -164 55 -59 27 -86 34 -135 34
-94 -1 -208 -24 -221 -45 -76 -128 -98 -143 -231 -151 -128 -8 -332 10 -420
37 -38 12 -112 30 -163 40 -99 20 -171 54 -195 92 -7 12 -16 46 -19 74 -9 80
-32 121 -76 134 -50 15 -407 7 -596 -14 -265 -28 -642 -40 -1415 -42 -415 -1
-840 -8 -945 -14 -379 -22 -513 -33 -675 -51 -281 -32 -329 -34 -399 -16 -34
9 -83 16 -107 16 -41 0 -84 24 -84 48 0 61 139 77 900 102 173 6 380 15 460
20 80 6 433 16 785 25 742 17 756 17 1060 52 313 35 516 36 731 4 89 -13 169
-21 178 -18 35 14 9 39 -81 77 -78 34 -104 40 -160 40 -84 0 -474 -26 -683
-45 -316 -28 -434 -21 -310 20 39 13 67 15 124 10 63 -6 87 -3 167 20 52 14
98 31 103 36 15 14 -32 11 -89 -6 -27 -9 -112 -20 -188 -24 l-137 -9 -113 -54
-112 -53 -1040 -5 c-817 -4 -1051 -3 -1090 7 -60 15 -55 15 -55 4 0 -5 25 -17
55 -26 54 -15 71 -37 39 -49 -25 -10 -156 -7 -197 5 -36 10 -37 11 -37 57 0
30 9 65 23 92 19 39 27 45 57 48 19 2 40 8 46 13 15 13 43 13 164 0 58 -6 155
-15 215 -21 61 -6 148 -15 195 -21 60 -7 159 -7 335 1 139 6 330 8 430 4 248
-9 727 22 1026 66 389 59 580 74 839 68 167 -4 205 -8 265 -28 71 -23 232 -99
302 -143 88 -56 128 -72 183 -73 30 -1 65 -5 78 -9 20 -7 22 -4 22 24 0 46 25
40 87 -21 52 -52 68 -51 37 1 -20 34 -73 71 -102 71 -46 0 -91 30 -205 139
-65 61 -124 111 -132 111 -9 0 -24 -5 -34 -12 -20 -12 -40 -5 -251 89 l-85 38
-167 -2 c-187 -2 -309 -11 -738 -53 -685 -68 -1261 -95 -1848 -87 -331 5 -422
4 -419 -6 2 -7 11 -10 18 -8 8 2 327 4 709 6 382 1 792 7 910 14 335 17 530
31 590 42 30 5 120 14 200 19 80 5 175 16 213 25 73 17 267 34 388 35 63 0 82
-4 110 -23 19 -13 63 -30 99 -39 64 -16 334 -131 397 -169 38 -23 77 -83 69
-104 -9 -25 -40 -17 -133 31 -48 26 -113 59 -143 75 -30 15 -100 43 -155 61
l-100 33 -225 -1 c-138 0 -285 -7 -380 -17 -85 -9 -256 -24 -380 -32 -251 -17
-369 -31 -408 -47 -16 -7 -113 -13 -237 -15 -115 -2 -399 -7 -630 -13 -431 -9
-506 -6 -757 31 -68 10 -98 10 -138 1 -59 -14 -106 0 -134 39 -18 27 -21 81
-5 111 27 51 73 55 869 78 201 6 437 17 525 25 165 15 392 27 840 45 143 6
316 17 385 25 69 9 143 18 165 20 129 16 400 24 481 14 181 -20 347 -78 466
-162 35 -24 104 -67 153 -95 105 -60 180 -116 299 -226 54 -49 91 -76 101 -73
8 4 30 38 50 77 19 38 40 70 45 70 14 0 38 -40 61 -101 19 -48 19 -54 5 -65
-9 -6 -28 -9 -44 -7 -28 5 -23 2 96 -79 18 -12 31 -14 49 -7 37 14 84 11 104
-7 17 -15 24 -15 90 0 39 9 88 16 109 16 50 0 189 -41 313 -92 64 -26 126 -43
175 -49 42 -6 120 -21 172 -36 52 -14 120 -25 150 -25 42 0 75 -9 140 -38 118
-52 275 -110 299 -110 12 0 62 -14 113 -31 50 -16 139 -36 197 -43 78 -10 125
-22 175 -46 39 -18 131 -48 205 -67 75 -19 188 -53 251 -75 63 -22 194 -65
290 -95 96 -30 256 -81 356 -113 205 -67 318 -90 445 -90 82 0 92 -2 156 -37
149 -80 196 -100 246 -106 29 -3 79 -15 112 -27 33 -12 125 -45 205 -73 l144
-50 38 22 c35 20 40 20 67 6 31 -16 77 -20 106 -9 9 4 30 35 46 70 17 35 57
95 89 134 32 39 75 98 96 133 20 34 46 72 57 84 11 12 23 42 28 68 5 25 52
139 105 253 105 225 201 446 241 557 35 96 80 183 117 227 17 20 37 53 45 75
7 21 69 153 137 293 67 140 155 334 194 430 81 197 138 316 175 364 13 18 40
66 59 107 95 209 206 460 224 511 12 31 57 135 101 232 80 175 234 539 273
644 11 32 33 71 48 87 38 41 50 68 66 141 7 35 24 83 37 106 14 24 30 59 36
79 7 21 43 92 81 158 95 166 102 181 144 303 41 122 133 332 235 536 68 136
111 244 111 278 0 10 -34 50 -75 91 -78 75 -87 94 -57 113 19 12 140 5 209
-12z m-442 -58 c7 -12 10 -7 -120 -245 -54 -99 -119 -211 -145 -250 -102 -153
-170 -269 -300 -515 -51 -96 -138 -256 -193 -355 -56 -99 -114 -211 -129 -249
-37 -90 -72 -151 -147 -255 -33 -46 -90 -145 -127 -220 -115 -238 -209 -386
-373 -591 -97 -121 -167 -224 -203 -295 -14 -27 -60 -101 -102 -163 -41 -62
-91 -143 -111 -181 -20 -38 -58 -96 -85 -129 -66 -82 -76 -104 -111 -244 -55
-223 -106 -325 -233 -471 -92 -106 -125 -161 -259 -436 -65 -135 -149 -292
-187 -351 -38 -58 -86 -136 -107 -175 -35 -63 -43 -71 -88 -88 -28 -10 -56
-24 -64 -32 -11 -11 -8 -16 23 -30 33 -16 96 -94 96 -120 0 -20 -23 -35 -56
-35 -43 0 -250 36 -349 60 -44 11 -101 34 -128 50 -71 44 -121 57 -278 75
-395 43 -388 41 -639 125 -129 43 -298 97 -375 119 -77 22 -174 52 -215 66
-45 15 -117 30 -180 36 -122 11 -396 62 -489 91 -36 11 -112 44 -170 73 -104
52 -493 202 -581 224 -25 7 -82 24 -127 38 l-81 27 -60 -27 c-33 -15 -68 -27
-79 -27 -26 0 -59 -26 -165 -128 -79 -76 -108 -92 -108 -59 0 29 99 215 125
235 65 52 285 98 429 90 73 -4 90 -8 134 -37 60 -38 122 -61 295 -107 71 -19
188 -59 259 -89 71 -30 181 -71 246 -90 64 -20 171 -53 237 -75 66 -21 138
-41 160 -45 22 -4 75 -18 118 -31 44 -13 152 -33 240 -45 188 -23 279 -43 432
-94 60 -20 148 -45 195 -56 48 -10 127 -34 176 -53 49 -19 143 -46 209 -61 66
-14 152 -38 190 -52 281 -100 373 -125 402 -107 47 29 17 50 -94 65 -112 15
-195 36 -303 79 -52 21 -143 48 -201 60 -162 34 -279 100 -177 100 112 0 223
-20 285 -51 72 -36 103 -35 167 7 35 24 109 45 258 74 38 7 65 20 84 38 37 36
119 163 191 297 33 61 148 241 255 400 107 160 221 335 253 390 32 55 111 181
175 280 64 99 130 203 145 230 36 65 222 338 297 437 32 43 72 107 88 144 17
36 63 114 104 172 40 59 112 172 159 252 47 80 113 188 145 241 33 52 68 113
77 135 9 21 27 50 40 64 29 31 89 144 144 270 27 61 60 117 93 155 91 107 199
255 273 374 39 64 94 152 122 197 28 45 70 117 92 162 22 44 64 120 92 167 28
48 62 112 76 143 43 99 242 378 295 415 27 18 54 22 63 7z m125 -146 c0 -36
-254 -684 -312 -797 -50 -97 -94 -157 -113 -157 -27 0 -16 40 54 199 38 86 81
190 95 231 15 41 42 102 60 135 19 33 53 112 76 175 61 163 96 230 120 230 12
0 20 -7 20 -16z m-11216 -3760 c185 -75 162 -74 1208 -77 623 -1 1011 2 1168
10 129 7 350 15 490 18 l255 7 80 -66 c44 -36 107 -92 141 -124 68 -67 132
-111 250 -170 125 -63 209 -173 202 -266 -5 -63 -30 -60 -124 17 -43 36 -134
96 -201 135 -68 39 -158 96 -200 127 -216 158 -478 212 -853 175 -52 -5 -214
-16 -360 -25 -146 -9 -283 -20 -306 -25 -50 -11 -247 -26 -543 -40 -123 -6
-285 -17 -360 -25 -195 -21 -562 -35 -888 -35 -271 0 -283 1 -293 20 -14 26
-5 58 36 121 21 33 34 66 34 86 0 27 8 38 53 72 29 22 63 54 75 71 12 16 28
30 35 30 7 0 53 -16 101 -36z m4672 -269 c152 -61 222 -96 309 -155 91 -61
156 -84 337 -120 226 -45 235 -48 353 -106 77 -38 146 -63 230 -84 67 -16 165
-48 219 -70 54 -22 139 -52 189 -67 104 -29 127 -43 107 -67 -24 -30 -177 -14
-325 34 -33 11 -95 29 -138 40 -44 11 -100 31 -126 44 -26 13 -87 31 -137 40
-86 15 -293 80 -358 113 -17 8 -40 24 -51 34 -34 30 -89 48 -182 59 -146 16
-258 61 -398 158 l-80 56 -125 -33 c-69 -18 -158 -39 -198 -46 -112 -19 -145
-47 -212 -179 -30 -59 -62 -112 -72 -117 -27 -15 -47 0 -59 44 -16 61 -4 105
36 128 18 11 48 43 66 70 58 91 211 207 344 263 63 26 135 15 271 -39z m4014
-165 c0 -46 -70 -170 -96 -170 -24 0 -24 18 -3 74 33 89 99 152 99 96z m-5795
-289 c7 -12 -31 -25 -45 -16 -5 3 -10 10 -10 16 0 12 47 12 55 0z m1603 -60
c37 -16 99 -34 138 -39 46 -6 95 -22 141 -45 39 -20 113 -48 164 -62 196 -54
323 -114 305 -143 -10 -16 -46 -15 -115 2 -31 8 -132 31 -225 51 -92 20 -218
54 -280 76 -96 35 -129 42 -240 50 -132 9 -156 17 -156 50 0 24 35 46 107 69
77 25 84 25 161 -9z m4012 -15 c0 -18 -26 -40 -34 -27 -9 14 4 41 20 41 8 0
14 -6 14 -14z m-110 -185 c0 -21 -26 -36 -36 -20 -9 15 3 39 21 39 8 0 15 -9
15 -19z m-5183 -42 c28 -27 32 -86 7 -96 -37 -14 -164 53 -164 87 0 10 8 24
18 30 27 17 112 4 139 -21z m5163 -18 c0 -27 -44 -76 -58 -67 -13 8 -2 36 26
69 20 22 32 22 32 -2z m-2801 -75 c66 -31 146 -61 178 -67 134 -24 236 -63
231 -89 -7 -33 -158 -20 -239 20 -19 10 -82 30 -140 44 -131 32 -269 97 -269
125 0 49 91 37 239 -33z m-1232 -132 c6 -17 -25 -44 -42 -38 -16 6 -20 35 -8
48 10 10 46 3 50 -10z m3916 -27 c8 -22 -33 -116 -68 -152 -37 -40 -65 -39
-65 3 0 30 52 114 88 142 29 23 38 25 45 7z m-1814 -27 c49 -7 102 -23 160
-49 47 -22 129 -52 181 -66 52 -14 142 -39 200 -55 58 -17 159 -37 225 -46
163 -21 186 -27 317 -80 162 -67 316 -121 441 -155 59 -16 118 -36 131 -44 14
-10 44 -14 84 -13 57 1 65 -1 129 -44 145 -96 193 -144 164 -162 -5 -3 -79 14
-165 39 -86 25 -202 56 -257 70 -101 26 -152 48 -239 106 -39 25 -67 32 -185
49 -173 25 -240 44 -285 79 -55 43 -53 42 -193 52 -75 5 -165 17 -207 29 -41
11 -109 28 -150 37 -41 8 -138 40 -214 70 -77 30 -201 70 -275 89 -75 19 -142
41 -150 49 -27 27 3 40 107 46 53 3 99 6 102 7 3 1 38 -3 79 -8z m825 -346
c19 -7 21 -44 3 -44 -22 0 -51 26 -43 38 8 13 17 15 40 6z"/>
<path d="M10617 2508 c-76 -132 -282 -572 -387 -828 -37 -91 -104 -243 -149
-338 -44 -95 -84 -184 -87 -199 -10 -37 14 -26 37 17 45 86 180 384 212 470
76 205 124 316 264 608 80 167 143 305 140 308 -2 3 -16 -14 -30 -38z"/>
<path d="M4652 1542 c-18 -15 -32 -32 -32 -37 0 -6 18 -22 40 -35 53 -33 54
-72 3 -99 -44 -23 -93 17 -108 87 -6 27 -15 37 -43 48 -21 8 -50 21 -65 29
-51 27 -63 -2 -21 -46 25 -26 26 -30 14 -59 -15 -36 -9 -46 18 -31 33 18 57
13 96 -18 25 -20 53 -31 89 -36 28 -4 75 -17 102 -29 45 -19 68 -21 225 -21
l175 0 82 39 c45 21 92 50 105 63 23 24 23 25 3 39 -25 18 -68 10 -116 -22
-52 -36 -82 -32 -120 16 -31 39 -34 40 -93 40 -65 0 -221 31 -258 51 -13 7
-29 20 -36 31 -17 23 -21 23 -60 -10z"/>
<path d="M7572 6713 c-14 -26 -16 -83 -2 -83 11 0 24 60 18 87 -4 16 -5 16
-16 -4z"/>
<path d="M7450 6481 c-13 -26 -10 -63 7 -68 16 -6 29 65 15 79 -7 7 -14 3 -22
-11z"/>
<path d="M7294 6186 c3 -38 11 -74 17 -80 9 -8 10 6 6 57 -3 38 -10 74 -17 80
-10 10 -11 -3 -6 -57z"/>
<path d="M7152 5956 c2 -56 7 -81 17 -84 11 -4 13 10 9 67 -2 39 -9 76 -16 83
-10 10 -12 -2 -10 -66z"/>
<path d="M6986 5795 c-8 -21 -8 -79 0 -99 3 -9 13 -16 21 -16 11 0 13 13 11
62 -3 59 -19 86 -32 53z"/>
<path d="M6815 5500 c-8 -13 13 -40 31 -40 22 0 28 22 9 37 -23 16 -32 16 -40
3z"/>
<path d="M6700 5276 c0 -17 5 -26 16 -26 10 0 14 7 12 22 -5 32 -28 35 -28 4z"/>
<path d="M6580 5072 c0 -14 23 -32 42 -32 21 0 23 11 6 28 -13 13 -48 16 -48
4z"/>
<path d="M6472 4853 c2 -10 13 -19 26 -21 24 -4 29 7 10 26 -18 18 -40 15 -36
-5z"/>
<path d="M6360 4670 c0 -33 24 -50 42 -32 8 8 6 18 -6 36 -22 35 -36 33 -36
-4z"/>
<path d="M6200 4451 c0 -16 41 -61 56 -61 19 0 18 13 -7 44 -20 25 -49 35 -49
17z"/>
<path d="M6090 4271 c0 -10 9 -29 20 -42 l19 -24 1 23 c0 28 -17 62 -30 62 -6
0 -10 -9 -10 -19z"/>
<path d="M5972 4076 c2 -22 9 -41 16 -44 17 -5 15 40 -3 64 -14 18 -15 17 -13
-20z"/>
<path d="M5860 3900 c0 -25 27 -37 43 -21 9 10 8 16 -7 27 -27 19 -36 18 -36
-6z"/>
<path d="M5670 3547 c0 -21 37 -64 46 -54 10 10 -16 59 -33 65 -7 2 -13 -3
-13 -11z"/>
<path d="M5570 3350 c0 -47 2 -50 25 -50 15 0 25 6 25 15 0 20 -32 85 -42 85
-4 0 -8 -22 -8 -50z"/>
<path d="M5475 3240 c-12 -19 5 -79 25 -90 25 -13 33 1 20 35 -16 43 -37 68
-45 55z"/>
<path d="M5380 3055 c0 -39 14 -60 34 -52 22 9 20 21 -9 54 l-24 28 -1 -30z"/>
<path d="M5290 2892 c0 -21 35 -58 43 -45 8 12 -15 55 -30 61 -8 2 -13 -5 -13
-16z"/>
<path d="M5177 2753 c-11 -17 9 -78 26 -81 13 -3 17 4 17 26 0 29 -33 71 -43
55z"/>
<path d="M5102 2574 c2 -11 11 -20 22 -22 13 -3 17 1 14 14 -2 11 -11 20 -22
22 -13 3 -17 -1 -14 -14z"/>
<path d="M4990 2465 c0 -25 25 -78 44 -94 13 -11 20 -11 29 -2 9 9 6 22 -13
59 -25 47 -60 69 -60 37z"/>
<path d="M4900 2271 c13 -25 59 -61 76 -61 25 0 14 27 -16 40 -16 7 -35 18
-41 26 -17 21 -31 17 -19 -5z"/>
<path d="M4770 2205 c0 -19 64 -86 102 -106 l21 -11 -21 28 c-11 16 -39 47
-61 69 -32 31 -41 35 -41 20z"/>
</g>
</svg>
