<?xml version="1.0" encoding="utf-8"?>
<!-- Generator: Adobe Illustrator 23.0.3, SVG Export Plug-In . SVG Version: 6.00 Build 0)  -->
<svg version="1.1" id="Capa_1" xmlns="http://www.w3.org/2000/svg" xmlns:xlink="http://www.w3.org/1999/xlink" x="0px" y="0px"
	 viewBox="0 0 1200 1200" enable-background="new 0 0 1200 1200" xml:space="preserve">
<g>
	<path fill="#180E26" d="M333.731,352.736c-1.852,1.315-2.742,3.61-2.261,5.832c0.481,2.221,2.243,3.941,4.472,4.372
		c0.856,0.164,15.817,2.993,36.162,2.993c7.815,0,16.427-0.417,25.336-1.563c43.551-5.601,72.931-26.1,84.964-59.284
		c20.121-55.496,12.911-82.113,3.321-94.669c-6.981-9.139-17.31-13.643-29.149-12.676c-15.992,1.308-25.556,20.013-31.19,36.669
		c-3.084-12.594-8.383-24.492-18-30.179c-7.105-4.203-15.384-4.346-24.611-0.423c-18.042,7.672-13.434,25.049-8.98,41.853
		C381.195,273.571,391.329,311.794,333.731,352.736z M384.773,242.751c-5.226-19.709-5.482-25.119,2.447-28.489
		c5.797-2.466,10.504-2.55,14.382-0.255c8.239,4.873,13.674,19.807,16.154,44.386c0.277,2.757,0.362,3.59,0.728,4.559
		c0.881,2.335,3.243,3.882,5.734,3.734c4.399-0.278,5.155-3.443,6.531-9.189c7.483-31.299,16.483-47.595,26.754-48.435
		c5.53-0.454,13.359,0.611,19.196,8.249c6.444,8.439,14.368,30.558-4.974,83.904c-20.107,55.452-90.649,55.074-120.322,52.297
		C402.873,311.026,392.074,270.288,384.773,242.751z"/>
	<path fill="#180E26" d="M287.972,367.185c-0.266,2.214,0.788,4.38,2.698,5.536c0.905,0.549,1.923,0.822,2.942,0.822
		c1.125,0,2.247-0.334,3.212-0.996c3.94-2.702,96.022-66.953,59.623-134.431c-12.749-23.637-28.025-28.16-38.569-27.792
		c-15.589,0.541-30.929,12.521-39.079,30.516c-6.169,13.623-7.017,27.694-2.762,39.881c-10.125-2.648-23.437-4.26-33.278,1.35
		c-4.849,2.766-10.901,8.564-12.181,20.474c-2.167,20.166,14.712,26.863,29.604,32.771
		C278.966,342.767,290.208,348.63,287.972,367.185z M241.87,303.758c0.626-5.806,2.753-9.671,6.506-11.816
		c2.875-1.642,6.54-2.28,10.477-2.28c10.094,0,21.986,4.199,26.98,6.462c2.405,1.094,5.242,0.388,6.853-1.704
		c1.611-2.092,1.568-5.017-0.102-7.06c-9.022-11.029-10.307-26.668-3.438-41.834c6.285-13.879,17.991-23.464,29.127-23.851
		c10.504-0.378,20.276,7.183,28.178,21.831c25.438,47.163-25.979,95.656-47.342,113.011c-3.199-19.247-21.095-26.345-34.738-31.758
		C249.206,318.742,240.683,314.8,241.87,303.758z"/>
	<path fill="#180E26" d="M166.869,468.349c5.329,1.052,10.568,1.939,15.633,2.797c28.95,4.909,53.953,9.149,80.039,40.337
		c1.111,1.329,2.722,2.035,4.357,2.035c0.974,0,1.954-0.25,2.846-0.766c2.389-1.384,3.436-4.288,2.48-6.88
		c-0.16-0.436-15.899-43.838-2.902-71.83c10.928-23.535,17.226-57.222,5.229-75.57c-4.153-6.355-12.538-13.837-28.488-13.502
		c-11.429,0.251-20.438,4.295-26.776,12.024c-6.853,8.354-9.16,19.542-9.708,28.91c-6.58-6.575-15.708-13.312-26.561-15.015
		c-10.823-1.698-21.281,1.796-31.082,10.383c-17.982,15.755-25.669,36.512-20.562,55.526
		C135.736,453.032,149.004,464.827,166.869,468.349z M159.422,389.814c6.107-5.351,12.137-7.982,18.333-7.982
		c1.151,0,2.307,0.091,3.472,0.271c16.982,2.64,29.813,23.608,29.935,23.812c1.406,2.347,4.279,3.361,6.859,2.4
		c2.567-0.958,4.082-3.612,3.605-6.309c-1.213-6.854-2.418-27.007,6.442-37.81c4.199-5.12,10.167-7.694,18.244-7.871
		c8.842-0.216,14.927,2.542,18.734,8.361c9.098,13.918,3.687,43.657-6.025,64.572c-8.712,18.763-6.686,42.247-3.316,59.019
		c-23.468-20.217-46.83-24.179-71.303-28.329c-4.991-0.846-10.154-1.723-15.336-2.743c-13.721-2.706-23.462-11.218-26.72-23.355
		C138.385,419.114,144.77,402.652,159.422,389.814z"/>
	<path fill="#180E26" d="M142.063,585.081c5.475-11.661,13.829-24.062,21.906-36.053c17.068-25.336,33.189-49.267,16.818-61.903
		c-5.051-3.898-10.897-5.34-16.897-4.173c-7.798,1.517-14.785,7.188-20.087,12.918c-1.012-7.104-3.39-14.66-8.663-18.949
		c-3.117-2.534-8.545-5.026-16.724-2.496c-13.39,4.139-31.667,32.361-36.483,66.241c-3.911,27.501-1.67,79.436,57.267,118.244
		c0.954,0.629,2.041,0.936,3.121,0.936c1.44,0,2.868-0.546,3.96-1.606c1.91-1.857,2.274-4.792,0.874-7.059
		C146.948,650.849,126.803,617.586,142.063,585.081z M128.76,636.695c-37.428-33.236-38.706-72.473-35.583-94.431
		c4.634-32.587,21.319-54.74,28.593-56.988c1.3-0.402,2.34-0.549,3.174-0.549c1.79,0,2.631,0.681,3.024,1
		c4.721,3.833,5.723,17.556,4.927,26.077c-0.248,2.649,1.375,5.114,3.907,5.934c2.533,0.821,5.3-0.233,6.648-2.53
		c3.084-5.25,13.157-19.277,22.621-21.109c2.815-0.546,5.286,0.095,7.778,2.017c7.942,6.129-6.529,27.612-19.298,46.566
		c-8.319,12.35-16.922,25.119-22.767,37.571C121.927,601.247,124.403,622.029,128.76,636.695z"/>
	<path fill="#180E26" d="M334.736,588.757c-0.262-2.113-1.686-3.9-3.685-4.633c-1.997-0.73-4.242-0.284-5.808,1.16
		c-5.335,4.923-21.764,17.046-33.626,14.073c-5.794-1.453-10.291-6.675-13.363-15.52c-2.48-7.141-4.108-14.695-5.832-22.692
		c-2.609-12.108-5.309-24.628-11.241-35.84c-10.273-19.411-34.383-22.044-51.846-14.663c-15.353,6.487-31.21,22.452-19.568,61.674
		c1.311,4.413,2.899,8.923,4.743,13.467c-6.728-1.846-14.93-2.704-22.732,0.135c-10.291,3.745-17.186,12.82-20.489,26.974
		c-4.215,18.06,3.722,37.059,21.234,50.824c12.789,10.055,32.51,18.297,55.612,18.297c14.708,0,30.789-3.344,47.314-11.688
		C340.007,637.73,334.98,590.741,334.736,588.757z M179.543,654.788c-13.951-10.966-20.378-25.664-17.192-39.314
		c2.281-9.77,6.493-16.019,12.521-18.571c2.467-1.046,5.118-1.459,7.769-1.459c9.983,0,19.959,5.875,20.145,5.987
		c2.589,1.563,5.95,0.823,7.642-1.684c1.613-2.39,1.171-5.586-0.969-7.454c-0.433-0.788-1.087-2.615-1.382-3.441
		c-0.317-0.886-0.599-1.646-0.819-2.139c-2.678-5.967-4.898-11.899-6.602-17.632c-11.194-37.714,7.092-45.439,13.1-47.977
		c12.824-5.417,30.279-3.923,37.386,9.51c5.2,9.827,7.618,21.046,10.178,32.923c1.721,7.979,3.498,16.23,6.207,24.025
		c4.412,12.705,11.6,20.382,21.356,22.817c12.019,3,24.97-3.16,33.708-8.846c-2.815,14.222-13.472,39.067-52.26,58.652
		C232.613,679.232,197.849,669.182,179.543,654.788z M208.648,591.731l0.013-0.02c0.14,0.087,0.264,0.173,0.373,0.255
		C208.954,591.916,208.825,591.836,208.648,591.731z"/>
	<path fill="#180E26" d="M353.148,507.193c18.985-5.949,51.879-19.191,58.853-41.029c2.001-6.261,2.627-16.047-5.757-27.102
		c-5.129-6.763-11.839-10.617-19.948-11.457c-8.838-0.917-18.022,2.044-25.789,5.851c2.995-8.102,4.741-17.556,2.032-26.31
		c-3.077-9.952-11.072-17.097-23.759-21.239c-15.54-5.071-32.402,3.201-45.106,22.135c-26.365,39.295-29.036,110.888,17.94,166.17
		c1.103,1.298,2.698,2.002,4.33,2.002c0.723,0,1.455-0.139,2.154-0.426c2.276-0.934,3.691-3.226,3.507-5.678
		C321.567,569.592,318.133,518.165,353.148,507.193z M310.677,554.342c-37.231-54.138-25.363-113.452-7.569-139.971
		c8.024-11.959,17.629-18.546,26.609-18.546c1.881,0,3.736,0.291,5.542,0.88c9.095,2.968,14.468,7.475,16.425,13.777
		c3.927,12.644-6.848,30.625-11.329,36.481c-1.777,2.313-1.513,5.597,0.61,7.596c2.123,2.001,5.417,2.065,7.62,0.151
		c5.599-4.869,23.093-17.199,36.543-15.808c4.923,0.51,8.869,2.806,12.066,7.022c4.426,5.838,5.732,11.328,3.989,16.783
		c-3.895,12.199-23.124,24.777-51.433,33.648C320.33,505.575,312.563,535.291,310.677,554.342z"/>
	<path fill="#180E26" d="M453.834,351.274c-7.833,8.417-11.504,20.105-10.697,31.448c-4.741-2.207-10.074-3.778-15.677-4.532
		c-12.356-1.668-23.355,0.872-30.168,6.964c0,0,0,0-0.002,0c-4.115,3.682-10.315,12.115-5.579,27.224
		c2.074,6.621,6.793,12.726,14.027,18.146c9.896,7.414,26.037,10.719,43.127,14.22c22.37,4.581,45.503,9.317,54.221,22.847
		c3.862,5.994,4.685,13.531,2.518,23.041c-0.665,2.923,1.056,5.861,3.931,6.709c0.535,0.158,1.076,0.233,1.608,0.233
		c2.329,0,4.499-1.444,5.333-3.737c1.495-4.103,36.122-100.966-5.797-143.327c-7.818-7.901-18.029-12.154-28.79-11.996
		C471.303,338.676,461.341,343.208,453.834,351.274z M482.484,349.868c7.471,0,14.604,3.055,20.121,8.632
		c24.356,24.612,18.078,73.661,10.912,104.392c-0.282-0.491-0.577-0.975-0.883-1.453c-11.307-17.547-36.818-22.772-61.491-27.823
		c-15.808-3.237-30.738-6.295-38.595-12.182c-5.289-3.962-8.652-8.151-9.998-12.452c-2.161-6.889-1.382-12.058,2.312-15.361
		c4.208-3.762,12.296-5.36,21.083-4.175c10.284,1.385,19.482,6.229,23.426,12.339c1.706,2.637,5.218,3.392,7.853,1.69
		c2.633-1.702,3.392-5.217,1.69-7.851c-0.002-0.002-0.002-0.004-0.004-0.006c-7.079-10.971-5.657-27.048,3.239-36.607
		c5.38-5.78,12.452-9.027,19.914-9.141C482.204,349.869,482.344,349.868,482.484,349.868z"/>
	<path fill="#180E26" d="M422.058,596.842c1.788,0,3.587-0.08,5.386-0.242c17.964-1.621,31.774-11.786,40.601-19.291
		c17.263-14.687,34.458-44.263,32.315-70.149c-1.253-15.136-8.92-27.333-22.173-35.272c-9.512-5.697-20.646-7.338-31.348-4.628
		c-11.118,2.817-20.52,9.898-26.47,19.939c-4.326,7.303-6.95,16.285-7.589,25.975c-0.202,3.037-0.315,5.777-0.339,8.248
		c-12.168-9.337-30.25-20.379-43.243-15.892c-4.847,1.673-11.01,6.214-12.849,18.34c-2.602,17.16,5.431,37.31,21.489,53.902
		C389.729,590.056,405.599,596.842,422.058,596.842z M367.579,525.572c1.196-7.88,4.304-8.953,5.326-9.306
		c0.883-0.304,1.877-0.448,2.962-0.448c10.511,0,29.6,13.49,40.987,24.218c0.002,0.002,0.002,0.004,0.007,0.007
		c2.278,2.15,5.876,2.045,8.026-0.24c2.083-2.21,2.05-5.648-0.027-7.818c-0.384-0.741-1.65-4.315-0.748-18.065
		c0.524-7.917,2.609-15.156,6.03-20.931c4.399-7.423,11.318-12.649,19.486-14.718c7.755-1.964,15.828-0.769,22.721,3.36
		c10.125,6.065,15.742,14.97,16.693,26.465c1.764,21.31-13.033,47.526-28.355,60.562c-12.319,10.475-22.885,15.604-34.263,16.629
		c-14.903,1.349-29.64-4.274-40.423-15.413C372.39,555.811,365.505,539.251,367.579,525.572z"/>
	<path fill="#180E26" d="M419.311,633.993c-2.777-8.113-9.242-14.524-16.871-16.731c-5.799-1.679-11.558-0.947-17.157,0.932
		c0.785-6.908-0.572-13.27-4.06-18.359c-3.552-5.181-8.654-8.584-14-9.336c-4.457-0.624-8.714,0.607-12.299,3.568
		c-9.333,7.704-13.603,18.65-17.736,29.235c-0.692,1.776-1.384,3.551-2.101,5.305c-4.725,11.58-11.316,21.682-19.058,29.218
		c-16.281,15.841-31,24.347-41.382,24.029c-3.141-0.095-5.759,2.35-5.865,5.486c-0.089,2.676,1.69,4.982,4.164,5.663
		c1.036,0.548,3.651,2.292,5.424,3.474c3.37,2.248,5.515,3.661,7.059,4.359c13.588,6.132,27.579,9.923,41.581,11.269
		c2.698,0.26,5.404,0.388,8.11,0.388c19.393,0,38.728-6.585,54.071-18.603C395.861,688.671,428.644,661.246,419.311,633.993z
		 M382.189,684.949c-15.216,11.919-34.944,17.692-54.091,15.852c-12.762-1.228-25.545-4.698-37.996-10.318
		c-0.109-0.051-0.257-0.13-0.435-0.231c10.34-4.031,21.811-12.15,34.285-24.289c8.854-8.616,16.341-20.051,21.651-33.065
		c0.739-1.808,1.453-3.638,2.167-5.468c3.769-9.658,7.33-18.781,14.386-24.606c1.109-0.914,2.216-1.258,3.485-1.078
		c2.132,0.299,4.512,2.028,6.214,4.51c4.583,6.686,1.187,16.057-0.488,19.775c-0.998,2.218-0.473,4.826,1.309,6.484
		c1.777,1.658,4.419,2.001,6.56,0.847c6.433-3.457,13.825-6.99,20.047-5.191c4.066,1.176,7.709,4.905,9.282,9.5
		C414.24,654.243,394.656,675.187,382.189,684.949z"/>
	<path fill="#180E26" d="M531.142,667.595c6.68-28.814,3.878-52.461-7.684-64.878c-6.642-7.132-15.677-10.031-26.117-8.382
		c-14.065,2.221-29.569,13.458-37.701,27.324c-8.496,14.479-8.033,28.313-6.147,37.37c0.415,1.998,0.827,4.1,1.251,6.258
		c0.646,3.288,1.324,6.739,2.083,10.185c-17.851-10.197-29.54-5.03-36.592,2.117c-4.592,4.657-6.245,12.088-4.652,20.923
		c2.935,16.287,17.055,37.913,41.981,49.511c19.511,9.08,38.846,11.396,53.507,11.396c14.659,0,24.646-2.318,25.451-2.511
		c1.795-0.43,3.263-1.713,3.946-3.427c0.683-1.715,0.486-3.66-0.521-5.207C539.745,747.961,519.795,716.541,531.142,667.595z
		 M462.354,737.724c-21.121-9.827-33.258-28.261-35.596-41.229c-0.892-4.949-0.306-9.035,1.562-10.931
		c2.948-2.987,6.327-4.49,10.222-4.49c6.573,0,14.619,4.281,24.535,12.941c1.974,1.725,4.878,1.871,7.015,0.358
		c2.141-1.514,2.968-4.297,1.999-6.734c-2.733-6.877-4.577-16.262-6.203-24.542c-0.433-2.202-0.854-4.346-1.278-6.384
		c-1.477-7.1-1.839-17.949,4.825-29.307c6.327-10.786,19.085-20.181,29.675-21.853c6.64-1.047,12.028,0.603,16.034,4.905
		c8.683,9.324,10.573,30.234,4.931,54.572c-9.271,39.99,0.395,69.085,6.396,82.039C514.111,748.585,488.096,749.701,462.354,737.724
		z"/>
	<path fill="#180E26" d="M536.579,482.178c1.103,1.34,2.724,2.07,4.386,2.07c0.725,0,1.46-0.14,2.161-0.429
		c2.662-1.097,65.389-27.317,81.113-66.45c4.963-12.347,4.794-24.688-0.499-36.68c-7.627-17.273-17.365-20.216-24.189-19.667
		c-8.133,0.668-14.859,6.532-19.524,13.939c-3.044-5.946-7.596-12.147-14.073-14.993c-4.1-1.801-10.704-2.966-18.903,1.678
		c-13.539,7.67-10.482,26.766-6.941,48.876c3.567,22.274,7.609,47.518-3.884,64.915
		C534.849,477.519,534.993,480.253,536.579,482.178z M552.649,371.529c2.411-1.365,4.297-1.801,5.774-1.801
		c1.251,0,2.209,0.312,2.948,0.634c7.079,3.098,11.666,16.567,12.714,21.034c0.59,2.549,2.846,4.366,5.464,4.397
		c2.622,0.075,4.918-1.73,5.568-4.263c2.642-10.27,9.39-18.698,15.362-19.188c5.994-0.52,10.642,7.891,12.869,12.934
		c4.066,9.207,4.182,18.316,0.357,27.844c-9.787,24.38-42.513,44.099-61.314,53.756c5.264-18.597,1.824-40.097-1.067-58.148
		C548.572,391.542,545.974,375.31,552.649,371.529z"/>
	<path fill="#180E26" d="M586.177,494.391c2.591-0.679,7.882,0.315,12.137,1.114c2.855,0.537,5.55,1.043,7.937,1.205
		c7.017,0.477,13.765,0.714,20.3,0.714c10.063,0,19.619-0.566,28.877-1.699c39.731-4.872,69.99-22.996,89.937-53.868
		c10.313-15.96,16.942-33.534,18.67-49.484c1.726-15.941-4.843-38.418-18.823-48.443c-5.885-4.22-15.604-7.999-28.499-2.017
		c-13.126,6.094-23.237,19.914-28.987,34.729c-0.036-0.074-0.073-0.149-0.109-0.224c-6.172-12.476-19.584-22.601-32.304-16.782
		c-12.935,5.922-12.767,21.299-12.656,31.474c0.011,1.125,0.024,2.205,0.018,3.219c-0.251,39.232-30.64,73.258-60.646,89.578
		c-2.522,1.371-3.625,4.409-2.567,7.079C580.521,493.655,583.409,495.112,586.177,494.391z M654.033,394.401
		c0.007-1.077-0.007-2.222-0.018-3.415c-0.109-9.943,0.268-18.388,6.025-21.024c6.522-2.977,14.231,5.096,17.394,11.493
		c2.669,5.393,5.249,13.406,4.996,19.148v0.001c-0.135,3.132,2.292,5.784,5.426,5.922c3.141,0.143,5.786-2.29,5.923-5.424
		c0,0,0,0,0-0.001c0.776-17.756,12.101-41.637,27.716-48.886c6.449-2.994,12.039-2.682,17.099,0.945
		c9.987,7.161,15.471,25.769,14.149,37.989c-1.542,14.224-7.549,30.042-16.917,44.544c-18.035,27.912-45.55,44.315-81.783,48.758
		c-14.548,1.784-29.93,2.087-47.025,0.927c-1.331-0.091-3.061-0.379-4.943-0.725C628.342,465.695,653.78,433.901,654.033,394.401z"
		/>
	<path fill="#180E26" d="M782.271,395.813c-5.774,1.38-10.422,5.156-13.446,10.922c-5.766,10.992-2.527,25.703,7.875,35.776
		c6.937,6.717,15.577,10.108,24.939,10.108c7.658,0,15.797-2.269,23.874-6.844c23.375-13.234,24.198-45.544,11.556-67.891
		c-8.587-15.18-21.307-20.941-32.419-14.661c-9.266,5.24-12.203,12.26-13.035,17.227c-0.896,5.356,0.138,10.686,1.903,15.4
		C789.893,395.103,786.031,394.914,782.271,395.813z M804.159,412.759c2.349,1.664,5.577,1.31,7.507-0.835
		c1.932-2.146,1.945-5.401,0.031-7.561c-2.939-3.322-10.267-13.756-8.88-22.037c0.626-3.73,3.052-6.744,7.423-9.215
		c7.995-4.519,15.515,7.844,16.942,10.366c8.678,15.338,10.981,42.085-7.263,52.416c-19.213,10.872-31.097,2.544-35.317-1.541
		c-6.593-6.383-9.051-15.988-5.719-22.342c1.515-2.886,3.423-4.521,6.007-5.144c0.856-0.206,1.757-0.299,2.686-0.299
		C793.895,406.565,801.462,410.853,804.159,412.759z"/>
	<path fill="#180E26" d="M981.257,281.16c-2.64-3.744-8.964-9.639-21.667-7.081c-6.24,1.258-11.879,3.904-17.088,7.278
		c0.197-6.387-0.637-12.361-1.32-15.362c-3.115-13.632-12.924-21.303-24.404-19.095c-33.005,6.352-27.024,54.787-23.812,80.81
		c4.046,32.751-36.905,62.179-37.479,62.587c-2.048,1.443-2.908,4.06-2.116,6.438c0.776,2.324,2.95,3.882,5.386,3.882
		c0.058,0,0.115,0,0.173-0.002c3.079-0.092,75.891-3.005,114.632-67.444C985.966,312.537,988.988,292.121,981.257,281.16z
		 M963.827,327.319c-24.021,39.952-63.439,54.189-86.61,59.225c13.326-13.247,30.101-35.294,27.022-60.227
		c-5.606-45.4-1.353-65.177,14.686-68.264c0.588-0.113,1.145-0.166,1.677-0.166c6.533,0,8.907,8.015,9.506,10.637
		c1.912,8.379,1.333,21.301-2.068,24.439c-2.305,2.126-2.449,5.72-0.324,8.025c2.127,2.305,5.721,2.451,8.026,0.323
		c0.002-0.003,0.007-0.006,0.009-0.008c7.804-7.2,16.367-14.131,26.084-16.09c7.338-1.48,9.448,1.511,10.14,2.492
		C976.177,293.665,974.728,309.186,963.827,327.319z"/>
	<path fill="#180E26" d="M807.378,270.224c-2.287,9.386,1.009,18.01,5.655,24.965c-1.981-0.326-3.84-0.633-5.045-0.902
		c-14.309-3.192-28.531,0.668-38.058,10.315c-9.102,9.222-12.918,21.957-9.719,32.447c2.813,9.225,10.322,15.513,21.143,17.704
		c8.434,1.709,16.871,1.355,25.025,1.013l2.868-0.116c8.099-0.309,16.64-0.392,24.253,2.267c6.449,2.254,10.686,6.196,15.105,14.061
		c0.759,1.348,2.032,2.328,3.527,2.715c0.47,0.121,0.947,0.181,1.424,0.181c1.043,0,2.074-0.286,2.977-0.843
		c9.035-5.564,16.713-19.131,22.818-40.327c4.428-15.374,5.195-31.046,2.218-45.323c-6.24-29.924-22.634-46.495-43.913-44.314
		C823.448,245.523,810.712,256.523,807.378,270.224z M818.412,272.911c2.201-9.037,10.972-16.579,20.405-17.544
		c21.447-2.201,29.267,23.977,31.636,35.332c2.6,12.473,1.903,26.257-2.014,39.861c-3.94,13.675-8.743,24.158-13.63,29.971
		c-3.844-5.346-9.16-10.402-17.563-13.337c-7.057-2.466-14.486-3.052-21.443-3.052c-2.398,0-4.741,0.071-6.99,0.158l-2.908,0.118
		c-7.822,0.328-15.214,0.638-22.297-0.796c-6.637-1.344-10.972-4.763-12.534-9.885c-1.999-6.556,0.723-14.859,6.937-21.153
		c6.764-6.847,17.039-9.543,27.506-7.211c1.546,0.345,3.529,0.672,5.828,1.049c4.1,0.674,13.703,2.255,15.673,3.915
		c2.369,2.059,5.956,1.81,8.013-0.559c2.056-2.366,1.808-5.953-0.559-8.011C821.829,290.774,816.427,281.065,818.412,272.911z"/>
	<path fill="#180E26" d="M665.746,330.804c-2.052,1.623-2.731,4.439-1.642,6.818c0.938,2.048,2.975,3.316,5.162,3.316
		c0.355,0,0.714-0.033,1.071-0.102c1.358-0.262,33.653-6.595,68.319-25.282c46.504-25.064,74.522-60.496,81.028-102.463
		c2.256-14.559,0.401-34.365-12.25-42.264c-5.431-3.39-11.205-4.162-16.707-2.229c-9.732,3.419-16.944,14.387-22.707,27.253
		c-2.493-6.28-6.393-12.716-12.478-16.803c-7.223-4.85-15.968-5.598-25.997-2.228c-16.52,5.553-16.602,23.407-16.695,44.081
		C712.711,251.674,712.518,293.818,665.746,330.804z M724.209,220.951c0.091-19.978,0.53-30.535,8.958-33.367
		c2.913-0.979,5.561-1.47,7.973-1.47c3.044,0,5.712,0.782,8.053,2.348c8.603,5.758,11.445,21.31,11.813,26.807
		c0.173,2.695,2.218,4.896,4.894,5.264c2.675,0.366,5.242-1.2,6.134-3.748c2.924-8.344,11.824-33.736,22.461-37.473
		c1.395-0.49,3.636-0.908,6.926,1.148c7.081,4.421,8.902,18.885,7.041,30.889c-10.655,68.725-81.434,100.357-118.195,112.292
		C723.905,287.321,724.085,248.1,724.209,220.951z"/>
	<path fill="#180E26" d="M595.412,232.511c6.899,5.296,14.879,6.878,22.594,8.408c5.916,1.172,11.505,2.28,16.083,4.996
		c9.251,5.484,17.01,13.765,22.446,23.947c4.943,9.262,11.857,27.996,10.648,32.384c-1.799,2.334-1.52,5.696,0.71,7.693
		c1.085,0.972,2.438,1.451,3.789,1.451c1.553,0,3.101-0.634,4.222-1.879c0.018-0.021,0.036-0.041,0.053-0.062
		c1.304-1.473,21.563-24.87,22.408-56.947c0.898-34.066-11.522-73.13-28.888-90.867c-6.866-7.013-14.218-10.567-21.851-10.567
		c-0.044,0-0.087,0-0.129,0c-6.052,0.032-11.025,2.046-14.382,5.825c-2.36,2.655-4.987,7.452-4.108,15.209
		c0.399,3.524,1.056,7.026,1.954,10.456c-10.231-3.292-22.206-3.752-28.77-1.131c-9.115,3.638-15.466,12.375-16.986,23.372
		C583.673,215.882,587.584,226.501,595.412,232.511z M596.455,206.356c0.941-6.796,4.752-12.306,9.947-14.38
		c1.535-0.612,3.72-0.892,6.238-0.892c9.064,0,22.423,3.628,25.101,8.393c0,0.004,0.002,0.008,0.004,0.011
		c1.531,2.74,4.987,3.715,7.729,2.187c2.737-1.53,3.716-4.989,2.187-7.727c0,0,0,0,0-0.001c-3.9-6.98-6.449-14.974-7.367-23.121
		c-0.226-1.988-0.18-4.71,1.313-6.391c1.46-1.643,4.04-2,5.947-2.01c0.022,0,0.044,0,0.067,0c4.468,0,9.091,2.407,13.741,7.155
		c15.194,15.519,26.461,51.81,25.649,82.621c-0.388,14.714-5.599,27.501-10.548,36.424c-3.292-11.612-9.468-23.287-9.907-24.113
		c-6.413-12.015-15.635-21.824-26.672-28.369c-6.256-3.709-13.075-5.06-19.67-6.368c-6.731-1.334-13.091-2.594-17.885-6.276
		C597.731,219.972,595.481,213.402,596.455,206.356z"/>
	<path fill="#180E26" d="M520.265,353.628c0.825,2.287,2.988,3.756,5.342,3.756c0.373,0,0.752-0.038,1.131-0.113
		c2.762-0.561,4.694-3.061,4.541-5.876c-0.379-6.946-1.045-42.04,23.206-50.768c4.286-1.542,8.618-2.422,13.204-3.354
		c10.417-2.119,21.19-4.308,30.303-14.488c6.491-7.254,8.574-18.448,5.182-27.855c-2.922-8.103-9.388-13.468-17.738-14.719
		c-5.734-0.86-11.919,0.161-18.898,3.123c-0.756,0.321-1.704,0.695-2.773,1.12c-0.792,0.314-1.579,0.629-2.358,0.946
		c6.731-15.229,11.227-31.541,5.193-42.016c-2.469-4.286-7.815-9.459-19.26-9.768c-11.369-0.304-20.935,3.472-28.448,11.232
		c-18.197,18.792-17.614,53.979-17.004,64.316C503.893,302.983,509.65,324.141,520.265,353.628z M527.051,212.75
		c5.073-5.239,11.3-7.793,19.016-7.793c0.319,0,0.641,0.004,0.967,0.013c7.487,0.202,9.171,3.123,9.723,4.083
		c2.886,5.012,2.768,17.528-14.202,48.694c0,0.002-0.002,0.004-0.002,0.007c-1.497,2.75-0.479,6.178,2.265,7.682
		c2.746,1.503,6.198,0.49,7.709-2.249c0,0,0,0,0.002-0.002c0.965-1.746,6.156-4.497,15.424-8.174
		c1.167-0.463,2.198-0.873,3.021-1.222c4.994-2.12,9.175-2.884,12.78-2.346c5.32,0.796,7.687,4.43,8.734,7.338
		c1.985,5.506,0.768,12.261-2.962,16.428c-6.6,7.375-14.71,9.023-24.1,10.931c-4.781,0.973-9.725,1.978-14.788,3.8
		c-15.489,5.574-24.156,19.1-28.131,34.387c-5.053-17.317-7.96-33.526-9.279-55.834C512.108,249.601,515.152,225.037,527.051,212.75
		z"/>
	<path fill="#180E26" d="M579.473,355.344c6.555,1.746,12.918,1.05,19.076,0.378c3.966-0.433,7.718-0.843,11.267-0.569
		c7.19,0.553,14.213,4.209,18.79,9.781c1.08,1.317,2.693,2.074,4.388,2.074c0.084,0,0.171-0.001,0.255-0.006
		c1.788-0.081,3.432-0.998,4.439-2.478c7.09-10.415,14.348-21.634,18.366-34.159c6.389-19.923,2.906-47.339-16.134-58.902
		c-6.875-4.177-15.114-5.021-22.04-2.256c-8.17,3.265-14.273,11.394-16.744,22.305c-1.056,4.669-1.429,9.321-1.79,13.817
		c-0.098,1.225-0.193,2.425-0.302,3.607c-6.367-1.398-12.875-1.897-19.433-1.485c-8.113,0.509-13.823,2.898-17.454,7.306
		c-2.904,3.525-4.335,8.261-4.137,13.694C558.468,340.846,567.492,352.155,579.473,355.344z M570.924,321.981
		c1.5-1.822,4.663-2.897,9.397-3.193c7.303-0.457,14.841,0.489,21.807,2.735c1.571,0.506,3.283,0.282,4.694-0.575
		c1.409-0.855,2.38-2.306,2.658-3.93c0.002-0.023,0.007-0.053,0.013-0.084c0.608-3.616,0.896-7.215,1.176-10.696
		c0.344-4.289,0.668-8.342,1.546-12.219c1.608-7.102,5.302-12.434,9.881-14.263c3.574-1.429,8.144-0.885,11.928,1.415
		c14.941,9.073,15.551,32.202,11.214,45.726c-2.891,9.018-7.72,17.323-13.131,25.559c-6.045-4.956-13.548-8.022-21.416-8.628
		c-1.109-0.085-2.207-0.122-3.297-0.122c-3.447,0-6.806,0.367-10.078,0.724c-5.355,0.585-10.413,1.136-14.921-0.062
		c-7.156-1.906-12.758-8.925-13.026-16.327C569.276,325.462,569.828,323.31,570.924,321.981z"/>
	<path fill="#180E26" d="M1020.522,317.939c-5.153,0.428-9.259,2.808-11.877,6.88c-3.7,5.756-3.66,14.128-2.476,21.641
		c-2.729-1.251-5.648-2.105-8.696-2.263c-7.103-0.364-13.619,4.173-15.032,10.565c-0.914,4.138,0.308,8.728,3.441,12.923
		c3.609,4.834,8.277,7.92,12.791,10.906c2.933,1.939,5.703,3.771,7.966,5.956c4.253,4.107,7.432,10.292,9.193,17.885
		c1.318,5.69,2.808,14.337,2.425,23.23c-0.204,4.766,2.837,7.198,5.748,7.439c0.277,0.022,0.572,0.047,0.892,0.047
		c2.58,0,6.73-1.593,14.399-18.503c2.997-6.606,8.272-19.71,9.945-33.262l0,0c1.588-12.898,0.768-43.8-11.913-56.992
		C1032.759,319.635,1026.944,317.406,1020.522,317.939z M1037.967,379.993v-0.002c-1.302,10.557-5.342,21.922-9.162,30.312
		c-0.535-3.983-1.24-7.552-1.908-10.435c-2.258-9.734-6.535-17.858-12.367-23.49c-3.015-2.912-6.36-5.122-9.592-7.261
		c-3.873-2.56-7.529-4.978-9.954-8.227c-1.06-1.421-1.63-2.863-1.451-3.675c0.173-0.788,1.637-1.679,3.161-1.679
		c0.067,0,0.131,0.002,0.197,0.007c5.845,0.299,12.574,6.688,14.785,8.788c1.91,1.811,4.812,2.074,7.015,0.638
		c2.203-1.439,3.13-4.202,2.241-6.677c-3.618-10.065-5.719-22.685-2.733-27.33c0.504-0.785,1.249-1.535,3.263-1.703
		c3.032-0.256,5.466,0.702,7.678,3.003C1038.24,341.73,1039.389,368.451,1037.967,379.993z"/>
	<path fill="#180E26" d="M1143.158,501.565c-3.88-22.641-14.55-34.795-20.225-39.829c12.909-44.884-26.461-116.891-31.124-125.178
		c-19.48-34.627-51.337-52.885-90.032-51.398c-0.343-2.345-0.865-4.641-1.629-6.837c-7.498-21.545-65.946-69.504-95.667-74.175
		c-20.78-3.265-39.296,4.58-49.428,10.242c-3.068-17.56-15.269-53.879-63.772-66.527c-7.17-2.01-21.935-1.628-31.634,11.858
		c-10.777-7.408-35.845-21.2-57.547-7.526c-8.592-9.146-32.053-29.144-70.154-25.369c-18.262,1.809-31.419,7.75-39.11,17.657
		c-3.736,4.815-5.51,9.776-6.318,13.871c-17.627-7.03-61.081-20.145-88.154,7.761c-11.371-5.52-44.033-17.482-84.74,1.991
		c-9.581,4.584-22.153,4.478-36.721,4.355c-25.185-0.217-56.602-0.479-89.487,23.77c-39.904,29.425-47.682,50.648-48.957,60.02
		c-14.102,4.882-59.998,24.734-71.447,79.244c-12.867,4.008-56.52,20.177-65.234,57.236c-7.143,30.384-1.109,48.661,3.05,56.774
		c-7.376,6.227-23.293,21.089-36.162,42.949c-15.835,26.899-29.704,69.72-5.852,120.958c23.67,50.85,53.174,69.567,73.757,76.317
		c16.973,5.566,30.798,4.195,37.069,3.035c6.611,6.897,26.8,25.9,59.401,38.707c16.942,6.655,38.837,12.122,65.067,12.122
		c19.731,0,41.927-3.129,66.284-11.142c16.325,13.416,36.496,18.61,56.931,14.478c23.967,60.187,108.657,61.714,160.76,40.89
		c0.273,0.04,0.538,0.12,0.816,0.12c0.728,0,1.469-0.141,2.183-0.439c6.459-2.691,14.108-5.68,22.205-8.629
		c3.937,18.063,17.462,67.314,49.883,81.25c3.422,8.46,16.368,35.202,45.157,42.162c8.542,48.353,55.521,147.896,91.872,170.427
		c0.248,0.154,0.51,0.288,0.779,0.403c0.546,0.231,1.473,0.527,2.64,0.527c1.573,0,3.583-0.538,5.683-2.497
		c7.594-7.084,20.041-39.322,15.338-53.89c-0.997-4.175-16.199-69.69-6.844-126.652c5.418,1.783,11.967,3.078,19.668,3.077
		c4.095,0,8.512-0.364,13.239-1.208c23.253-4.152,37.144-15.431,43.367-21.798c7.873,5.281,25.121,13.236,49.243,4.07
		c19.854-7.542,34.642-18.607,45.67-31.024c0.411-0.327,0.793-0.699,1.111-1.149c0.079-0.112,0.128-0.234,0.197-0.349
		c17.126-19.992,24.778-43.214,28.173-60.9c0.111-0.258,0.212-0.522,0.286-0.802c0.144-0.545,0.176-1.089,0.16-1.626
		c2.597-14.788,2.217-25.156,2.203-25.459c-0.013-0.291-0.049-0.581-0.109-0.865c-0.517-2.538-1.111-4.941-1.741-7.274
		c1.897,0.199,3.771,0.331,5.601,0.331c8.822,0,16.862-2.302,24.016-6.89c17.148-11.001,23.853-31.915,25.91-40.193
		c10.127-3.419,39.737-15.727,49.621-45.326c5.433-16.271,0.98-33.407-5.557-47.335c17.252-4.457,28.672-12.878,33.946-25.096
		c7.871-18.242-0.715-39.202-5.202-48.072C1145.292,527.199,1145.804,516.99,1143.158,501.565z M807.66,1020.175
		c0.04,0.164,0.089,0.327,0.144,0.488c3.104,9.03-5.794,32.843-10.713,40.288c-32.246-23.851-73.578-111.832-82.892-157.055
		c0.817,0.031,1.623,0.078,2.461,0.078c6.258,0,13.095-0.882,20.549-2.886c3.028-0.814,4.823-3.93,4.009-6.959
		c-0.812-3.028-3.92-4.825-6.959-4.009c-36.399,9.786-54.857-12.015-62.611-25.835c3.697,0.61,7.316,0.891,10.835,0.891
		c30.492-0.003,53.407-20.615,54.585-21.696c2.309-2.117,2.465-5.701,0.351-8.014c-2.11-2.31-5.701-2.473-8.019-0.365
		c-0.308,0.282-31.213,27.907-65.852,15.374c-9.608-3.475-17.425-11.081-23.722-20.276c8.477,2.256,20.229,4.364,34.725,4.364
		c2.249,0,4.572-0.051,6.95-0.16c3.132-0.144,5.557-2.8,5.413-5.933c-0.144-3.132-2.804-5.537-5.932-5.414
		c-26.389,1.216-44.344-5.423-49.548-7.645c-6.16-12.984-10.044-26.5-12.169-35.289c21.017,7.012,71.394,20.818,110.136,7.508
		c7.686-2.64,14.553-5.784,20.677-9.216c2.834,0.477,8.141,1.256,15.124,1.781c-10.279,15.595-14.104,31.366-11.319,47.006
		c5.522,31.027,35.117,50.399,39.844,53.315c1.074,0.988,3.545,3.082,7.373,5.316C790.05,947.304,806.92,1017.166,807.66,1020.175z
		 M1136.374,576.286c-4.052,9.391-13.828,15.855-29.034,19.244c-4.397-7.392-8.797-13.146-11.349-16.271
		c1.657-5.675,4.051-17.719-0.009-31.327c-4.151-13.916-14.493-23.433-19.71-27.517c2.356-17.882-1.429-38.481-11.028-59.843
		c-1.284-2.861-4.65-4.137-7.507-2.852c-2.862,1.286-4.14,4.646-2.853,7.508c6.484,14.429,13.423,35.984,9.654,56.724
		c-0.41,2.258,0.592,4.551,2.522,5.795c0.135,0.088,13.732,8.996,18.038,23.43c2.084,6.986,1.984,13.505,1.326,18.409
		c-17.451-15.586-32.687-20.915-40.928-22.727c3.124-23.87-4.696-58.933-18.727-81.656c-15.391-24.928-38.101-34.968-39.059-35.383
		c-2.882-1.247-6.209,0.078-7.456,2.947c-1.251,2.871,0.064,6.215,2.933,7.471c0.202,0.09,20.476,9.157,33.919,30.932
		c13.672,22.144,21.114,58.383,16.25,79.134c-0.388,1.651,0.004,3.39,1.034,4.738c1.029,1.35,2.629,2.17,4.324,2.234
		c0.213,0.008,21.457,1.104,46.721,27.084c1.523,1.736,31.73,36.742,22.209,65.257c-6.294,18.849-23.048,29.541-34.274,34.795
		c2.886-13.153,1.528-30.539-14.606-42.695c-2.405-22.782-17.133-60.359-58.226-61.545c0.976-20.674,0.397-85.878-41.972-121.252
		c-2.405-2.01-5.987-1.69-7.999,0.719c-2.01,2.407-1.688,5.99,0.719,7.999c45.055,37.618,37.595,116.936,37.515,117.732
		c-0.166,1.656,0.399,3.304,1.553,4.506c1.151,1.201,2.797,1.84,4.437,1.738c48.372-2.897,52.717,51.287,52.877,53.585
		c0.115,1.764,1.045,3.372,2.516,4.352c22.332,14.889,9.306,40.825,8.749,41.906c-0.103,0.196-0.183,0.404-0.262,0.611
		c-0.023,0.059-0.053,0.113-0.074,0.172c-0.098,0.283-0.174,0.573-0.225,0.866c-0.044,0.251-4.652,25.221-21.662,36.093
		c-7.657,4.894-16.916,6.186-27.531,3.94c-13.927-33.946-39.732-40.241-41.001-40.53c-3.061-0.697-6.101,1.225-6.795,4.281
		c-0.692,3.059,1.225,6.102,4.284,6.795c0.288,0.067,29.041,7.073,38.123,50.699c0.059,1.856,0.135,8.446-1.053,17.613
		l-37.911-10.006c-3.026-0.799-6.141,1.007-6.939,4.042c-0.801,3.033,1.009,6.139,4.042,6.94l38.87,10.259
		c-3.135,14.586-9.483,32.447-22.254,48.458l-51.145-36.125c-2.56-1.809-6.103-1.201-7.915,1.362c-1.81,2.562-1.2,6.106,1.362,7.915
		l50.075,35.37c-9.535,9.499-21.808,17.897-37.636,23.911c-22.963,8.721-37.636-1.626-41.146-4.546l-19.953-52.399
		c-1.116-2.932-4.397-4.4-7.327-3.287c-2.93,1.116-4.403,4.397-3.285,7.328l19.252,50.559c-4.347,4.686-16.509,15.65-38.115,19.508
		c-14.86,2.655-25.752-0.282-32.643-3.537c-0.192-0.101-0.383-0.197-0.589-0.277c-5.22-2.562-7.981-5.229-8.22-5.468
		c-0.348-0.357-0.75-0.67-1.178-0.924c-0.302-0.177-30.108-18.087-35.026-45.934c-2.556-14.466,2.071-29.398,13.72-44.416
		c0.303,0.002,0.597,0.008,0.903,0.008c30.135,0,74.222-7.213,98.571-44.874c4.103-0.177,8.504-0.611,13.224-1.351
		c59.539-9.331,73.222-66.367,73.353-66.943c0.06-0.26,0.1-0.524,0.122-0.789c2.598-30.974-11.808-45.293-20.473-51.025
		c27.758-45.798,4.936-79.078,3.913-80.524c-1.81-2.561-5.355-3.169-7.915-1.357c-2.562,1.81-3.168,5.355-1.358,7.915
		c0.215,0.304,21.112,30.803-7.423,72.856c-0.976,1.438-1.216,3.251-0.694,4.907c0.523,1.657,1.799,2.992,3.423,3.609
		c0.896,0.341,21.873,8.707,19.244,42.239c-1.242,4.937-13.927,50.05-63.949,57.888c-49.661,7.783-55.431-21.504-55.668-22.853
		c-0.506-3.077-3.388-5.169-6.487-4.688c-3.097,0.487-5.215,3.395-4.727,6.492c0.055,0.349,5.069,28.897,41.742,33.165
		c-26.804,33.9-75.467,35.095-99.805,33.245c22.113-17.233,30.059-36.512,30.51-37.648c1.16-2.914-0.26-6.216-3.174-7.377
		c-2.913-1.164-6.218,0.262-7.376,3.174c-0.138,0.345-14.273,34.71-59.022,50.083c-31.742,10.905-73.865,1.254-96.325-5.532
		c19.655-6.173,38.225-10.465,46.086-8.446c3.033,0.781,6.132-1.051,6.912-4.091c0.779-3.038-1.054-6.132-4.091-6.911
		c-22.443-5.753-89.951,21.933-97.575,25.109c-0.417,0.174-0.791,0.401-1.142,0.656c-30.674,2.94-59.772,13.439-91.072,7.589
		c-25.596-4.784-49.931-20.751-58.37-46.289c-0.932-2.821-3.797-4.703-6.794-3.858c-16.683,4.697-33.529,2.229-48.006-6.515
		c9.527-3.624,19.365-7.999,29.497-13.232c2.786-1.439,3.878-4.865,2.44-7.652c-1.442-2.789-4.872-3.875-7.651-2.44
		c-55.797,28.808-108.522,34.75-156.812,17.708c17.392-4.452,24.342-16.699,24.712-17.375c1.497-2.732,0.499-6.136-2.218-7.658
		c-2.718-1.522-6.169-0.546-7.718,2.156c-0.353,0.62-8.951,15.158-33.091,12.884c-1.165-0.111-2.271,0.138-3.221,0.647
		c-26.679-13.903-41.174-30.621-41.339-30.814c-1.457-1.713-3.809-2.399-5.963-1.761c-2.407,0.712-59.488,16.414-100.852-72.442
		c-17.423-37.424-15.691-74.458,5.149-110.072c15.784-26.978,37.18-43.021,37.391-43.177c1.242-0.918,2.036-2.333,2.236-3.866
		c0.197-1.533-0.26-3.108-1.227-4.314c-0.124-0.154-12.292-15.849-3.827-51.859c8.45-35.941,59.994-49.717,60.508-49.851
		c0.456-0.118,0.873-0.316,1.276-0.534c0.829,0.449,1.752,0.714,2.701,0.714c0.863,0,1.741-0.197,2.562-0.615
		c0.145-0.074,9.561-4.741,23.403-6.22c-2.716,3.554-4.738,7.921-4.575,13.057c0.098,3.074,2.62,5.499,5.675,5.499
		c0.06,0,0.122-0.002,0.182-0.003c3.135-0.1,5.597-2.721,5.497-5.857c-0.177-5.543,6.833-10.624,10.369-12.607
		c3.109,0.377,6.309,0.967,9.572,1.831c3.024,0.801,6.14-1.004,6.944-4.035c0.803-3.033-1.005-6.14-4.037-6.944
		c-23.906-6.332-44.698-0.252-53.589,3.177c13.803-52.242,63.895-66.393,66.116-66.993c2.815-0.75,4.632-3.325,4.171-6.203
		c-0.018-0.201-1.329-20.549,44.547-54.378c29.835-22,57.895-21.759,82.652-21.553c1.226,0.01,2.442,0.019,3.656,0.027
		c-20.201,5.424-25.823,15.698-26.439,16.959c-1.375,2.82-0.237,6.284,2.582,7.658c0.819,0.399,1.682,0.589,2.529,0.589
		c2.076,0,4.055-1.138,5.031-3.14c0.049-0.087,5.036-8.702,24.797-12.379c19.222-3.576,23.799-7.496,25.64-10.511
		c0.664-1.089,1-2.276,1.064-3.443c0.966-0.378,1.922-0.779,2.858-1.227c43.866-20.984,76.703-1.161,78.065-0.316
		c2.411,1.521,5.59,1.013,7.407-1.197c27.397-33.259,84.571-5.225,85.143-4.94c1.879,0.945,4.128,0.741,5.837-0.479
		c1.715-1.22,2.609-3.316,2.331-5.402c-0.042-0.312-0.947-7.698,4.639-14.75c5.737-7.242,16.205-11.663,31.115-13.141
		c41.419-4.098,62.676,23.915,63.55,25.095c0.927,1.269,2.34,2.096,3.9,2.287c1.553,0.186,3.13-0.277,4.335-1.287
		c21.352-17.905,52.48,7.902,52.786,8.16c1.344,1.137,3.141,1.587,4.856,1.221c1.719-0.367,3.172-1.51,3.933-3.095
		c7.232-15.041,20.36-12.088,21.891-11.684c55.943,14.587,56.413,63.146,56.407,65.189c-0.02,2.172,1.2,4.163,3.141,5.133
		c1.941,0.969,4.261,0.748,5.99-0.57c0.226-0.173,22.931-17.287,48.866-13.212c26.7,4.196,81.037,50.409,86.701,66.687
		c5.697,16.373-6.125,42.418-6.245,42.678c-1.309,2.848-0.064,6.221,2.782,7.534c2.848,1.313,6.22,0.068,7.531-2.776
		c0.414-0.895,7.532-16.549,8.644-32.986c0.024,0,0.046,0.006,0.07,0.004c34.148-1.318,62.421,14.886,79.708,45.616
		c16.465,29.274,41.118,87.408,29.07,119.62c-0.934,2.501,0.038,5.341,2.283,6.788c0.583,0.376,14.34,9.507,18.701,34.949
		c1.914,11.176,1.651,17.135,1.098,20.156c-9.557-6.884-31.978-25.318-35.547-48.967c-0.792-5.25-1.482-10.597-2.15-15.768
		c-2.112-16.346-4.295-33.25-10.007-49.684c-1.029-2.964-4.273-4.531-7.228-3.501c-2.964,1.029-4.53,4.266-3.5,7.227
		c5.326,15.327,7.338,30.912,9.47,47.411c0.677,5.231,1.373,10.639,2.185,16.009c4.858,32.192,36.993,54.611,43.914,59.1
		C1132.889,540.275,1143.199,560.47,1136.374,576.286z"/>
	<path fill="#180E26" d="M784.922,896.813c0.666-3.065-1.278-6.088-4.341-6.756c-3.039-0.657-6.087,1.273-6.755,4.338
		c-0.426,1.95-10.244,48.162,5.397,82.162c0.958,2.081,3.015,3.306,5.164,3.306c0.794,0,1.599-0.167,2.369-0.521
		c2.848-1.311,4.097-4.683,2.786-7.532C775.505,941.3,784.826,897.254,784.922,896.813z"/>
	<path fill="#180E26" d="M632.935,541.3c16.214,5.954,30.714,8.958,43.665,8.958c10.648,0,20.263-2.008,28.956-6.018
		c8.79-4.057,18.197-12.263,24.776-22.137c17.535,3.425,33.547,4.921,48.091,4.921c44.734,0,75.72-13.917,95.399-27.658
		c29.023-20.267,40.27-44.147,40.734-45.153c1.315-2.848,0.071-6.223-2.775-7.537c-2.855-1.315-6.223-0.071-7.536,2.776
		c-0.405,0.873-41.078,85.41-168.347,62.156c3.534-8.886,4.328-18.343,0.392-26.968c-1.302-2.853-4.663-4.115-7.525-2.81
		c-2.853,1.302-4.111,4.671-2.808,7.524c6.857,15.029-10.318,37.722-25.161,44.572c-16.194,7.475-36.824,6.531-62.929-2.894
		c0.972-4.388,0.647-8.922-1.038-13.547c-1.071-2.946-4.337-4.466-7.279-3.391c-2.948,1.074-4.466,4.334-3.392,7.28
		c1.134,3.115,1.201,5.91,0.209,8.68c-0.609,0.561-1.116,1.248-1.44,2.07c-0.174,0.441-0.271,0.892-0.331,1.342
		c-3.768,5.538-13.24,13.037-36.353,20.4c-11.544,3.678-40.257,9.632-57.511-14.411c-1.83-2.549-5.377-3.132-7.926-1.302
		c-2.547,1.828-3.13,5.376-1.302,7.924c10.624,14.805,26.907,22.61,45.807,22.61c7.755,0,15.952-1.314,24.38-3.999
		C612.406,558.091,625.966,550.4,632.935,541.3z"/>
	<path fill="#180E26" d="M896.812,661.375c-1.389-0.789-34.394-19.229-69.717-10.614c-25.196,6.145-37.3,18.544-42.409,25.709
		c-11.387-5.662-40.483-16.851-76.041-5.639c-30.228,9.528-43.706,24.474-49.432,33.753c-9.867-9.138-31.406-25.054-60.369-23.757
		c-11.176,0.506-15.103-1.999-15.671-3.006c-0.089-0.156,0.06-0.689,0.51-1.365c2.476-3.719,12.019-8.946,27.111-7.193
		c3.139,0.515,43.613,6.978,71.784,2.663c3.101-0.475,5.231-3.373,4.756-6.473s-3.354-5.222-6.475-4.754
		c-26.896,4.118-67.929-2.594-68.339-2.662c-0.087-0.014-0.175-0.028-0.264-0.038c-19.158-2.269-32.91,4.471-38.027,12.162
		c-2.897,4.352-3.243,9.18-0.945,13.246c2.496,4.421,9.062,9.537,26.07,8.767c33.81-1.52,56.844,25.525,57.065,25.789
		c1.087,1.311,2.691,2.03,4.357,2.03c0.39-0.001,0.788-0.04,1.18-0.122c2.059-0.427,3.722-1.988,4.308-4.006
		c0.26-0.89,6.773-21.9,45.796-34.201c39.798-12.549,71.303,6.997,71.609,7.19c1.411,0.906,3.155,1.14,4.758,0.639
		c1.602-0.501,2.902-1.685,3.547-3.234c0.071-0.171,7.909-17.169,37.812-24.462c30.696-7.487,60.817,9.122,61.411,9.454
		c2.722,1.548,6.192,0.598,7.744-2.131C900.492,666.392,899.538,662.925,896.812,661.375z"/>
	<path fill="#180E26" d="M931.093,497.69c-3.143-0.236-5.854,2.107-6.092,5.235c-2.939,38.934-78.608,61.938-79.373,62.167
		c-1.355,0.404-2.513,1.3-3.243,2.512c-0.184,0.305-19.16,30.73-85.084,46.493c-65.974,15.773-112.654-6.887-113.108-7.114
		c-0.07-0.035-0.148-0.045-0.22-0.078c-0.109-0.049-0.206-0.115-0.319-0.159c-9.339-3.527-5.708-17.865-5.537-18.515
		c0.807-3.024-0.983-6.132-4.006-6.948c-3.026-0.816-6.145,0.974-6.964,4.002c-1.749,6.48-2.381,18.173,3.927,25.99
		c-26.755,12.784-52.625,9.948-52.933,9.912c-3.106-0.37-5.934,1.843-6.314,4.954c-0.379,3.114,1.839,5.945,4.951,6.322
		c0.415,0.051,3.578,0.413,8.669,0.413c11.868,0,34.201-1.968,56.502-14.435c11.553,4.98,56.473,21.41,117.991,6.702
		c61.777-14.77,85.405-42.245,90.882-49.774c12.924-4.142,82.237-28.328,85.505-71.589
		C936.563,500.653,934.22,497.927,931.093,497.69z"/>
	<path fill="#180E26" d="M912.097,581.65c-2.773-1.462-6.158-0.486-7.62,2.289c-0.064,0.103-6.819,10.329-37.06,11.806
		c-2.775,0.135-5.045,2.258-5.364,5.018c-0.983,8.479-27.379,33.033-72.33,33.114c-3.135,0.007-5.675,2.553-5.668,5.69
		c0.007,3.132,2.547,5.668,5.679,5.668c0.002,0,0.007,0,0.011,0c45.756-0.082,75.471-23.138,82.206-38.396
		c33.702-2.593,41.654-15.868,42.475-17.428C915.888,586.637,914.872,583.112,912.097,581.65z"/>
	<path fill="#180E26" d="M786.943,568.736c-0.357,0.202-36.455,20.184-86.506,16.763c-3.146-0.213-5.839,2.148-6.054,5.278
		c-0.215,3.13,2.15,5.84,5.278,6.054c4.279,0.293,8.45,0.427,12.518,0.427c46.726,0,78.885-17.806,80.345-18.629
		c2.731-1.541,3.696-5.005,2.156-7.735C793.136,568.16,789.678,567.193,786.943,568.736z"/>
	<path fill="#180E26" d="M980.78,622.276c0.135-0.033,13.701-3.11,23.73,4.366c7.023,5.233,10.979,14.607,11.757,27.858
		c0.177,3.018,2.682,5.346,5.666,5.346c0.111,0,0.224-0.003,0.337-0.01c3.132-0.184,5.521-2.872,5.337-6.002
		c-0.992-16.82-6.513-29.06-16.418-36.38c-14.366-10.617-32.322-6.403-33.076-6.219c-3.039,0.741-4.896,3.796-4.168,6.837
		C974.675,621.115,977.747,622.989,980.78,622.276z"/>
	<path fill="#180E26" d="M1051.546,592.363c1.391,0.248,34.052,6.595,32.366,51.435c-0.118,3.135,2.327,5.77,5.462,5.889
		c0.073,0.003,0.144,0.003,0.217,0.003c3.037,0,5.555-2.404,5.67-5.465c2.072-55.055-41.368-62.985-41.807-63.058
		c-3.112-0.521-5.987,1.556-6.522,4.634C1046.399,588.88,1048.469,591.814,1051.546,592.363z"/>
	<path fill="#180E26" d="M871.909,416.588c-2.609,1.739-3.312,5.26-1.575,7.869c1.094,1.644,2.895,2.533,4.732,2.533
		c1.08,0,2.174-0.308,3.139-0.951c0.459-0.303,45.965-30.038,68.537-2.878c2.008,2.411,5.588,2.74,7.997,0.737
		c2.414-2.004,2.742-5.585,0.739-7.997C926.376,380.892,874.116,415.113,871.909,416.588z"/>
	<path fill="#180E26" d="M789.727,497.573c0.209,0,0.419-0.012,0.63-0.034c72.013-7.951,84.407-42.431,84.899-43.895
		c0.992-2.946-0.581-6.107-3.516-7.135c-2.942-1.03-6.163,0.529-7.225,3.448c-0.107,0.292-11.363,29.223-75.405,36.293
		c-3.117,0.344-5.366,3.15-5.022,6.267C784.409,495.422,786.869,497.573,789.727,497.573z"/>
	<path fill="#180E26" d="M838.735,841.735c-28.866,3.748-38.569-14.658-39.003-15.515c-1.38-2.796-4.763-3.966-7.569-2.599
		c-2.824,1.368-4.002,4.764-2.635,7.587c0.484,0.995,11.234,22.399,41.55,22.399c2.862,0,5.899-0.191,9.117-0.607
		c3.11-0.404,5.304-3.251,4.903-6.361C844.696,843.528,841.872,841.342,838.735,841.735z"/>
</g>
</svg>
